<mxfile host="65bd71144e">
    <diagram id="yCGz78-TuwW_nGP2jN17" name="README">
        <mxGraphModel dx="1400" dy="406" grid="1" gridSize="10" guides="1" tooltips="1" connect="1" arrows="1" fold="1" page="1" pageScale="1" pageWidth="827" pageHeight="1169" math="0" shadow="0">
            <root>
                <mxCell id="HZwxHfuI6zqRKq9_gun1-0"/>
                <mxCell id="HZwxHfuI6zqRKq9_gun1-1" parent="HZwxHfuI6zqRKq9_gun1-0"/>
                <mxCell id="HZwxHfuI6zqRKq9_gun1-2" value="&lt;div style=&quot;text-align: justify&quot;&gt;以下の処理内容についてまとめました&lt;/div&gt;&lt;ul&gt;&lt;li style=&quot;text-align: justify&quot;&gt;Requestメソッド&lt;/li&gt;&lt;li style=&quot;text-align: justify&quot;&gt;フロント，バックで送受信する値&lt;/li&gt;&lt;li style=&quot;text-align: justify&quot;&gt;APIのドメイン&lt;/li&gt;&lt;/ul&gt;&lt;div style=&quot;text-align: justify&quot;&gt;&lt;br&gt;&lt;/div&gt;" style="rounded=1;whiteSpace=wrap;html=1;fontSize=18;" vertex="1" parent="HZwxHfuI6zqRKq9_gun1-1">
                    <mxGeometry x="209" y="40" width="410" height="320" as="geometry"/>
                </mxCell>
                <mxCell id="HZwxHfuI6zqRKq9_gun1-3" value="バックエンド" style="swimlane;" vertex="1" parent="HZwxHfuI6zqRKq9_gun1-1">
                    <mxGeometry x="394" y="430" width="370" height="360" as="geometry"/>
                </mxCell>
                <mxCell id="HZwxHfuI6zqRKq9_gun1-4" value="data" style="shape=table;startSize=30;container=1;collapsible=1;childLayout=tableLayout;fixedRows=1;rowLines=0;fontStyle=1;align=center;resizeLast=1;" vertex="1" parent="HZwxHfuI6zqRKq9_gun1-3">
                    <mxGeometry x="15" y="40" width="185" height="100" as="geometry"/>
                </mxCell>
                <mxCell id="HZwxHfuI6zqRKq9_gun1-5" value="" style="shape=partialRectangle;collapsible=0;dropTarget=0;pointerEvents=0;fillColor=none;top=0;left=0;bottom=0;right=0;points=[[0,0.5],[1,0.5]];portConstraint=eastwest;" vertex="1" parent="HZwxHfuI6zqRKq9_gun1-4">
                    <mxGeometry y="30" width="185" height="30" as="geometry"/>
                </mxCell>
                <mxCell id="HZwxHfuI6zqRKq9_gun1-6" value="status" style="shape=partialRectangle;connectable=0;fillColor=none;top=0;left=0;bottom=0;right=0;editable=1;overflow=hidden;" vertex="1" parent="HZwxHfuI6zqRKq9_gun1-5">
                    <mxGeometry width="80" height="30" as="geometry">
                        <mxRectangle width="80" height="30" as="alternateBounds"/>
                    </mxGeometry>
                </mxCell>
                <mxCell id="HZwxHfuI6zqRKq9_gun1-7" value="success / error" style="shape=partialRectangle;connectable=0;fillColor=none;top=0;left=0;bottom=0;right=0;align=left;spacingLeft=6;overflow=hidden;" vertex="1" parent="HZwxHfuI6zqRKq9_gun1-5">
                    <mxGeometry x="80" width="105" height="30" as="geometry">
                        <mxRectangle width="105" height="30" as="alternateBounds"/>
                    </mxGeometry>
                </mxCell>
                <mxCell id="HZwxHfuI6zqRKq9_gun1-8" value="" style="shape=partialRectangle;collapsible=0;dropTarget=0;pointerEvents=0;fillColor=none;top=0;left=0;bottom=0;right=0;points=[[0,0.5],[1,0.5]];portConstraint=eastwest;" vertex="1" parent="HZwxHfuI6zqRKq9_gun1-4">
                    <mxGeometry y="60" width="185" height="30" as="geometry"/>
                </mxCell>
                <mxCell id="HZwxHfuI6zqRKq9_gun1-9" value="オブジェクト" style="shape=partialRectangle;connectable=0;fillColor=none;top=0;left=0;bottom=0;right=0;fontStyle=0;overflow=hidden;" vertex="1" parent="HZwxHfuI6zqRKq9_gun1-8">
                    <mxGeometry width="80" height="30" as="geometry">
                        <mxRectangle width="80" height="30" as="alternateBounds"/>
                    </mxGeometry>
                </mxCell>
                <mxCell id="HZwxHfuI6zqRKq9_gun1-10" value="オブジェクト名" style="shape=partialRectangle;connectable=0;fillColor=none;top=0;left=0;bottom=0;right=0;align=left;spacingLeft=6;fontStyle=0;overflow=hidden;" vertex="1" parent="HZwxHfuI6zqRKq9_gun1-8">
                    <mxGeometry x="80" width="105" height="30" as="geometry">
                        <mxRectangle width="105" height="30" as="alternateBounds"/>
                    </mxGeometry>
                </mxCell>
                <mxCell id="HZwxHfuI6zqRKq9_gun1-11" value="articleList" style="shape=table;startSize=30;container=1;collapsible=1;childLayout=tableLayout;fixedRows=1;rowLines=0;fontStyle=1;align=center;resizeLast=1;" vertex="1" parent="HZwxHfuI6zqRKq9_gun1-3">
                    <mxGeometry x="15" y="175" width="185" height="130" as="geometry"/>
                </mxCell>
                <mxCell id="HZwxHfuI6zqRKq9_gun1-12" value="" style="shape=partialRectangle;collapsible=0;dropTarget=0;pointerEvents=0;fillColor=none;top=0;left=0;bottom=0;right=0;points=[[0,0.5],[1,0.5]];portConstraint=eastwest;" vertex="1" parent="HZwxHfuI6zqRKq9_gun1-11">
                    <mxGeometry y="30" width="185" height="30" as="geometry"/>
                </mxCell>
                <mxCell id="HZwxHfuI6zqRKq9_gun1-13" value="Integer" style="shape=partialRectangle;connectable=0;fillColor=none;top=0;left=0;bottom=0;right=0;editable=1;overflow=hidden;" vertex="1" parent="HZwxHfuI6zqRKq9_gun1-12">
                    <mxGeometry width="50" height="30" as="geometry">
                        <mxRectangle width="50" height="30" as="alternateBounds"/>
                    </mxGeometry>
                </mxCell>
                <mxCell id="HZwxHfuI6zqRKq9_gun1-14" value="id" style="shape=partialRectangle;connectable=0;fillColor=none;top=0;left=0;bottom=0;right=0;align=left;spacingLeft=6;overflow=hidden;" vertex="1" parent="HZwxHfuI6zqRKq9_gun1-12">
                    <mxGeometry x="50" width="135" height="30" as="geometry">
                        <mxRectangle width="135" height="30" as="alternateBounds"/>
                    </mxGeometry>
                </mxCell>
                <mxCell id="HZwxHfuI6zqRKq9_gun1-15" value="" style="shape=partialRectangle;collapsible=0;dropTarget=0;pointerEvents=0;fillColor=none;top=0;left=0;bottom=0;right=0;points=[[0,0.5],[1,0.5]];portConstraint=eastwest;" vertex="1" parent="HZwxHfuI6zqRKq9_gun1-11">
                    <mxGeometry y="60" width="185" height="30" as="geometry"/>
                </mxCell>
                <mxCell id="HZwxHfuI6zqRKq9_gun1-16" value="String" style="shape=partialRectangle;connectable=0;fillColor=none;top=0;left=0;bottom=0;right=0;fontStyle=0;overflow=hidden;" vertex="1" parent="HZwxHfuI6zqRKq9_gun1-15">
                    <mxGeometry width="50" height="30" as="geometry">
                        <mxRectangle width="50" height="30" as="alternateBounds"/>
                    </mxGeometry>
                </mxCell>
                <mxCell id="HZwxHfuI6zqRKq9_gun1-17" value="name" style="shape=partialRectangle;connectable=0;fillColor=none;top=0;left=0;bottom=0;right=0;align=left;spacingLeft=6;fontStyle=0;overflow=hidden;" vertex="1" parent="HZwxHfuI6zqRKq9_gun1-15">
                    <mxGeometry x="50" width="135" height="30" as="geometry">
                        <mxRectangle width="135" height="30" as="alternateBounds"/>
                    </mxGeometry>
                </mxCell>
                <mxCell id="HZwxHfuI6zqRKq9_gun1-18" value="" style="shape=partialRectangle;collapsible=0;dropTarget=0;pointerEvents=0;fillColor=none;top=0;left=0;bottom=0;right=0;points=[[0,0.5],[1,0.5]];portConstraint=eastwest;" vertex="1" parent="HZwxHfuI6zqRKq9_gun1-11">
                    <mxGeometry y="90" width="185" height="30" as="geometry"/>
                </mxCell>
                <mxCell id="HZwxHfuI6zqRKq9_gun1-19" value="List" style="shape=partialRectangle;connectable=0;fillColor=none;top=0;left=0;bottom=0;right=0;editable=1;overflow=hidden;" vertex="1" parent="HZwxHfuI6zqRKq9_gun1-18">
                    <mxGeometry width="50" height="30" as="geometry">
                        <mxRectangle width="50" height="30" as="alternateBounds"/>
                    </mxGeometry>
                </mxCell>
                <mxCell id="HZwxHfuI6zqRKq9_gun1-20" value="ランチリスト" style="shape=partialRectangle;connectable=0;fillColor=none;top=0;left=0;bottom=0;right=0;align=left;spacingLeft=6;overflow=hidden;" vertex="1" parent="HZwxHfuI6zqRKq9_gun1-18">
                    <mxGeometry x="50" width="135" height="30" as="geometry">
                        <mxRectangle width="135" height="30" as="alternateBounds"/>
                    </mxGeometry>
                </mxCell>
                <mxCell id="HZwxHfuI6zqRKq9_gun1-21" value="ランチリスト" style="shape=table;startSize=30;container=1;collapsible=1;childLayout=tableLayout;fixedRows=1;rowLines=0;fontStyle=1;align=center;resizeLast=1;" vertex="1" parent="HZwxHfuI6zqRKq9_gun1-3">
                    <mxGeometry x="240" y="245" width="120" height="70" as="geometry"/>
                </mxCell>
                <mxCell id="HZwxHfuI6zqRKq9_gun1-22" value="" style="shape=partialRectangle;collapsible=0;dropTarget=0;pointerEvents=0;fillColor=none;top=0;left=0;bottom=0;right=0;points=[[0,0.5],[1,0.5]];portConstraint=eastwest;" vertex="1" parent="HZwxHfuI6zqRKq9_gun1-21">
                    <mxGeometry y="30" width="120" height="30" as="geometry"/>
                </mxCell>
                <mxCell id="HZwxHfuI6zqRKq9_gun1-23" value="String" style="shape=partialRectangle;connectable=0;fillColor=none;top=0;left=0;bottom=0;right=0;editable=1;overflow=hidden;" vertex="1" parent="HZwxHfuI6zqRKq9_gun1-22">
                    <mxGeometry width="50" height="30" as="geometry">
                        <mxRectangle width="50" height="30" as="alternateBounds"/>
                    </mxGeometry>
                </mxCell>
                <mxCell id="HZwxHfuI6zqRKq9_gun1-24" value="店名" style="shape=partialRectangle;connectable=0;fillColor=none;top=0;left=0;bottom=0;right=0;align=left;spacingLeft=6;overflow=hidden;" vertex="1" parent="HZwxHfuI6zqRKq9_gun1-22">
                    <mxGeometry x="50" width="70" height="30" as="geometry">
                        <mxRectangle width="70" height="30" as="alternateBounds"/>
                    </mxGeometry>
                </mxCell>
                <mxCell id="HZwxHfuI6zqRKq9_gun1-25" value="" style="edgeStyle=entityRelationEdgeStyle;fontSize=12;html=1;endArrow=ERoneToMany;" edge="1" parent="HZwxHfuI6zqRKq9_gun1-3" source="HZwxHfuI6zqRKq9_gun1-11" target="HZwxHfuI6zqRKq9_gun1-8">
                    <mxGeometry width="100" height="100" relative="1" as="geometry">
                        <mxPoint x="81" y="290" as="sourcePoint"/>
                        <mxPoint x="181" y="190" as="targetPoint"/>
                    </mxGeometry>
                </mxCell>
                <mxCell id="HZwxHfuI6zqRKq9_gun1-26" value="" style="fontSize=12;html=1;endArrow=ERoneToMany;" edge="1" parent="HZwxHfuI6zqRKq9_gun1-3" source="HZwxHfuI6zqRKq9_gun1-21" target="HZwxHfuI6zqRKq9_gun1-18">
                    <mxGeometry width="100" height="100" relative="1" as="geometry">
                        <mxPoint x="209.99999999999977" y="295" as="sourcePoint"/>
                        <mxPoint x="230" y="390" as="targetPoint"/>
                    </mxGeometry>
                </mxCell>
                <mxCell id="HZwxHfuI6zqRKq9_gun1-27" value="&lt;span style=&quot;font-size: 14px&quot;&gt;&amp;nbsp;api / domain&amp;nbsp;&lt;/span&gt;" style="endArrow=open;endSize=12;dashed=1;html=1;" edge="1" parent="HZwxHfuI6zqRKq9_gun1-1" source="HZwxHfuI6zqRKq9_gun1-29" target="HZwxHfuI6zqRKq9_gun1-4">
                    <mxGeometry width="160" relative="1" as="geometry">
                        <mxPoint x="258" y="520" as="sourcePoint"/>
                        <mxPoint x="535" y="510.0000000000001" as="targetPoint"/>
                    </mxGeometry>
                </mxCell>
                <mxCell id="HZwxHfuI6zqRKq9_gun1-28" value="フロントエンド" style="swimlane;" vertex="1" parent="HZwxHfuI6zqRKq9_gun1-1">
                    <mxGeometry x="64" y="430" width="210" height="160" as="geometry"/>
                </mxCell>
                <mxCell id="HZwxHfuI6zqRKq9_gun1-29" value="リクエストメソッド" style="shape=table;startSize=30;container=1;collapsible=1;childLayout=tableLayout;fixedRows=1;rowLines=0;fontStyle=1;align=center;resizeLast=1;" vertex="1" parent="HZwxHfuI6zqRKq9_gun1-28">
                    <mxGeometry x="15" y="55" width="180" height="70" as="geometry"/>
                </mxCell>
                <mxCell id="HZwxHfuI6zqRKq9_gun1-30" value="" style="shape=partialRectangle;collapsible=0;dropTarget=0;pointerEvents=0;fillColor=none;top=0;left=0;bottom=0;right=0;points=[[0,0.5],[1,0.5]];portConstraint=eastwest;" vertex="1" parent="HZwxHfuI6zqRKq9_gun1-29">
                    <mxGeometry y="30" width="180" height="30" as="geometry"/>
                </mxCell>
                <mxCell id="HZwxHfuI6zqRKq9_gun1-31" value="型" style="shape=partialRectangle;connectable=0;fillColor=none;top=0;left=0;bottom=0;right=0;editable=1;overflow=hidden;" vertex="1" parent="HZwxHfuI6zqRKq9_gun1-30">
                    <mxGeometry width="71" height="30" as="geometry">
                        <mxRectangle width="71" height="30" as="alternateBounds"/>
                    </mxGeometry>
                </mxCell>
                <mxCell id="HZwxHfuI6zqRKq9_gun1-32" value="値" style="shape=partialRectangle;connectable=0;fillColor=none;top=0;left=0;bottom=0;right=0;align=left;spacingLeft=6;overflow=hidden;" vertex="1" parent="HZwxHfuI6zqRKq9_gun1-30">
                    <mxGeometry x="71" width="109" height="30" as="geometry">
                        <mxRectangle width="109" height="30" as="alternateBounds"/>
                    </mxGeometry>
                </mxCell>
                <mxCell id="HZwxHfuI6zqRKq9_gun1-33" value="" style="group" vertex="1" connectable="0" parent="HZwxHfuI6zqRKq9_gun1-1">
                    <mxGeometry x="63.999999999999986" y="580" width="170" height="210" as="geometry"/>
                </mxCell>
                <mxCell id="HZwxHfuI6zqRKq9_gun1-34" value="" style="shape=callout;whiteSpace=wrap;html=1;perimeter=calloutPerimeter;fontSize=18;strokeColor=#F0F0F0;position2=0.58;rotation=-180;size=30;position=0.53;" vertex="1" parent="HZwxHfuI6zqRKq9_gun1-33">
                    <mxGeometry x="1.4210854715202004e-14" width="170" height="210" as="geometry"/>
                </mxCell>
                <mxCell id="HZwxHfuI6zqRKq9_gun1-35" value="" style="group" vertex="1" connectable="0" parent="HZwxHfuI6zqRKq9_gun1-33">
                    <mxGeometry x="25.000000000000014" y="50" width="115" height="140" as="geometry"/>
                </mxCell>
                <mxCell id="HZwxHfuI6zqRKq9_gun1-36" value="GET" style="shape=table;startSize=30;container=1;collapsible=1;childLayout=tableLayout;fixedRows=1;rowLines=0;fontStyle=1;align=center;resizeLast=1;strokeColor=#F0F0F0;" vertex="1" parent="HZwxHfuI6zqRKq9_gun1-35">
                    <mxGeometry width="115" height="60" as="geometry"/>
                </mxCell>
                <mxCell id="HZwxHfuI6zqRKq9_gun1-37" value="" style="shape=partialRectangle;collapsible=0;dropTarget=0;pointerEvents=0;fillColor=none;top=0;left=0;bottom=0;right=0;points=[[0,0.5],[1,0.5]];portConstraint=eastwest;" vertex="1" parent="HZwxHfuI6zqRKq9_gun1-36">
                    <mxGeometry y="30" width="115" height="30" as="geometry"/>
                </mxCell>
                <mxCell id="HZwxHfuI6zqRKq9_gun1-38" value="パラメータ" style="shape=partialRectangle;connectable=0;fillColor=none;top=0;left=0;bottom=0;right=0;editable=1;overflow=hidden;" vertex="1" parent="HZwxHfuI6zqRKq9_gun1-37">
                    <mxGeometry width="71" height="30" as="geometry">
                        <mxRectangle width="71" height="30" as="alternateBounds"/>
                    </mxGeometry>
                </mxCell>
                <mxCell id="HZwxHfuI6zqRKq9_gun1-39" value="値" style="shape=partialRectangle;connectable=0;fillColor=none;top=0;left=0;bottom=0;right=0;align=left;spacingLeft=6;overflow=hidden;" vertex="1" parent="HZwxHfuI6zqRKq9_gun1-37">
                    <mxGeometry x="71" width="44" height="30" as="geometry">
                        <mxRectangle width="44" height="30" as="alternateBounds"/>
                    </mxGeometry>
                </mxCell>
                <mxCell id="HZwxHfuI6zqRKq9_gun1-40" value="POST" style="shape=table;startSize=30;container=1;collapsible=1;childLayout=tableLayout;fixedRows=1;rowLines=0;fontStyle=1;align=center;resizeLast=1;" vertex="1" parent="HZwxHfuI6zqRKq9_gun1-35">
                    <mxGeometry y="80" width="115" height="60" as="geometry"/>
                </mxCell>
                <mxCell id="HZwxHfuI6zqRKq9_gun1-41" value="" style="shape=partialRectangle;collapsible=0;dropTarget=0;pointerEvents=0;fillColor=none;top=0;left=0;bottom=0;right=0;points=[[0,0.5],[1,0.5]];portConstraint=eastwest;" vertex="1" parent="HZwxHfuI6zqRKq9_gun1-40">
                    <mxGeometry y="30" width="115" height="30" as="geometry"/>
                </mxCell>
                <mxCell id="HZwxHfuI6zqRKq9_gun1-42" value="型" style="shape=partialRectangle;connectable=0;fillColor=none;top=0;left=0;bottom=0;right=0;editable=1;overflow=hidden;" vertex="1" parent="HZwxHfuI6zqRKq9_gun1-41">
                    <mxGeometry width="71" height="30" as="geometry">
                        <mxRectangle width="71" height="30" as="alternateBounds"/>
                    </mxGeometry>
                </mxCell>
                <mxCell id="HZwxHfuI6zqRKq9_gun1-43" value="値" style="shape=partialRectangle;connectable=0;fillColor=none;top=0;left=0;bottom=0;right=0;align=left;spacingLeft=6;overflow=hidden;" vertex="1" parent="HZwxHfuI6zqRKq9_gun1-41">
                    <mxGeometry x="71" width="44" height="30" as="geometry">
                        <mxRectangle width="44" height="30" as="alternateBounds"/>
                    </mxGeometry>
                </mxCell>
            </root>
        </mxGraphModel>
    </diagram>
    <diagram id="nfRl-ElfN_oi4hSUxccd" name="ログイン">
        <mxGraphModel dx="1400" dy="406" grid="1" gridSize="10" guides="1" tooltips="1" connect="1" arrows="1" fold="1" page="1" pageScale="1" pageWidth="827" pageHeight="1169" math="0" shadow="0">
            <root>
                <mxCell id="0"/>
                <mxCell id="1" parent="0"/>
                <mxCell id="2" value="Front" style="swimlane;" vertex="1" parent="1">
                    <mxGeometry x="54" y="80" width="320" height="320" as="geometry"/>
                </mxCell>
                <mxCell id="3" value="Post" style="shape=table;startSize=30;container=1;collapsible=1;childLayout=tableLayout;fixedRows=1;rowLines=0;fontStyle=1;align=center;resizeLast=1;" vertex="1" parent="2">
                    <mxGeometry x="70" y="70" width="180" height="100" as="geometry"/>
                </mxCell>
                <mxCell id="4" value="" style="shape=partialRectangle;collapsible=0;dropTarget=0;pointerEvents=0;fillColor=none;top=0;left=0;bottom=0;right=0;points=[[0,0.5],[1,0.5]];portConstraint=eastwest;" vertex="1" parent="3">
                    <mxGeometry y="30" width="180" height="30" as="geometry"/>
                </mxCell>
                <mxCell id="5" value="String" style="shape=partialRectangle;connectable=0;fillColor=none;top=0;left=0;bottom=0;right=0;editable=1;overflow=hidden;" vertex="1" parent="4">
                    <mxGeometry width="71" height="30" as="geometry">
                        <mxRectangle width="71" height="30" as="alternateBounds"/>
                    </mxGeometry>
                </mxCell>
                <mxCell id="6" value="email" style="shape=partialRectangle;connectable=0;fillColor=none;top=0;left=0;bottom=0;right=0;align=left;spacingLeft=6;overflow=hidden;" vertex="1" parent="4">
                    <mxGeometry x="71" width="109" height="30" as="geometry">
                        <mxRectangle width="109" height="30" as="alternateBounds"/>
                    </mxGeometry>
                </mxCell>
                <mxCell id="7" value="" style="shape=partialRectangle;collapsible=0;dropTarget=0;pointerEvents=0;fillColor=none;top=0;left=0;bottom=0;right=0;points=[[0,0.5],[1,0.5]];portConstraint=eastwest;" vertex="1" parent="3">
                    <mxGeometry y="60" width="180" height="30" as="geometry"/>
                </mxCell>
                <mxCell id="8" value="String" style="shape=partialRectangle;connectable=0;fillColor=none;top=0;left=0;bottom=0;right=0;editable=1;overflow=hidden;" vertex="1" parent="7">
                    <mxGeometry width="71" height="30" as="geometry">
                        <mxRectangle width="71" height="30" as="alternateBounds"/>
                    </mxGeometry>
                </mxCell>
                <mxCell id="9" value="password" style="shape=partialRectangle;connectable=0;fillColor=none;top=0;left=0;bottom=0;right=0;align=left;spacingLeft=6;overflow=hidden;" vertex="1" parent="7">
                    <mxGeometry x="71" width="109" height="30" as="geometry">
                        <mxRectangle width="109" height="30" as="alternateBounds"/>
                    </mxGeometry>
                </mxCell>
                <mxCell id="10" value="Back" style="swimlane;" vertex="1" parent="1">
                    <mxGeometry x="454" y="80" width="320" height="320" as="geometry"/>
                </mxCell>
                <mxCell id="11" value="data" style="shape=table;startSize=30;container=1;collapsible=1;childLayout=tableLayout;fixedRows=1;rowLines=0;fontStyle=1;align=center;resizeLast=1;" vertex="1" parent="10">
                    <mxGeometry x="50" y="70" width="220" height="100" as="geometry"/>
                </mxCell>
                <mxCell id="12" value="" style="shape=partialRectangle;collapsible=0;dropTarget=0;pointerEvents=0;fillColor=none;top=0;left=0;bottom=0;right=0;points=[[0,0.5],[1,0.5]];portConstraint=eastwest;" vertex="1" parent="11">
                    <mxGeometry y="30" width="220" height="30" as="geometry"/>
                </mxCell>
                <mxCell id="13" value="status" style="shape=partialRectangle;connectable=0;fillColor=none;top=0;left=0;bottom=0;right=0;editable=1;overflow=hidden;" vertex="1" parent="12">
                    <mxGeometry width="80" height="30" as="geometry">
                        <mxRectangle width="80" height="30" as="alternateBounds"/>
                    </mxGeometry>
                </mxCell>
                <mxCell id="14" value="success / error" style="shape=partialRectangle;connectable=0;fillColor=none;top=0;left=0;bottom=0;right=0;align=left;spacingLeft=6;overflow=hidden;" vertex="1" parent="12">
                    <mxGeometry x="80" width="140" height="30" as="geometry">
                        <mxRectangle width="140" height="30" as="alternateBounds"/>
                    </mxGeometry>
                </mxCell>
                <mxCell id="15" value="" style="shape=partialRectangle;collapsible=0;dropTarget=0;pointerEvents=0;fillColor=none;top=0;left=0;bottom=0;right=0;points=[[0,0.5],[1,0.5]];portConstraint=eastwest;" vertex="1" parent="11">
                    <mxGeometry y="60" width="220" height="30" as="geometry"/>
                </mxCell>
                <mxCell id="16" value="Integer" style="shape=partialRectangle;connectable=0;fillColor=none;top=0;left=0;bottom=0;right=0;fontStyle=0;overflow=hidden;" vertex="1" parent="15">
                    <mxGeometry width="80" height="30" as="geometry">
                        <mxRectangle width="80" height="30" as="alternateBounds"/>
                    </mxGeometry>
                </mxCell>
                <mxCell id="17" value="userId" style="shape=partialRectangle;connectable=0;fillColor=none;top=0;left=0;bottom=0;right=0;align=left;spacingLeft=6;fontStyle=0;overflow=hidden;" vertex="1" parent="15">
                    <mxGeometry x="80" width="140" height="30" as="geometry">
                        <mxRectangle width="140" height="30" as="alternateBounds"/>
                    </mxGeometry>
                </mxCell>
                <mxCell id="18" value="&lt;font style=&quot;font-size: 14px&quot;&gt;user / login&lt;/font&gt;" style="endArrow=open;endSize=12;dashed=1;html=1;" edge="1" parent="1" source="3" target="11">
                    <mxGeometry width="160" relative="1" as="geometry">
                        <mxPoint x="310" y="165.0000000000001" as="sourcePoint"/>
                        <mxPoint x="500" y="160" as="targetPoint"/>
                    </mxGeometry>
                </mxCell>
            </root>
        </mxGraphModel>
    </diagram>
    <diagram id="s_-WhVjcU0-n521XOvMJ" name="ユーザー登録">
        <mxGraphModel dx="1400" dy="406" grid="1" gridSize="10" guides="1" tooltips="1" connect="1" arrows="1" fold="1" page="1" pageScale="1" pageWidth="827" pageHeight="1169" math="0" shadow="0">
            <root>
                <mxCell id="5oUkKl5Ig3Eirwiq1jfx-0"/>
                <mxCell id="5oUkKl5Ig3Eirwiq1jfx-1" parent="5oUkKl5Ig3Eirwiq1jfx-0"/>
                <mxCell id="5oUkKl5Ig3Eirwiq1jfx-2" value="Front" style="swimlane;" vertex="1" parent="5oUkKl5Ig3Eirwiq1jfx-1">
                    <mxGeometry x="54" y="60" width="320" height="320" as="geometry"/>
                </mxCell>
                <mxCell id="5oUkKl5Ig3Eirwiq1jfx-3" value="Post" style="shape=table;startSize=30;container=1;collapsible=1;childLayout=tableLayout;fixedRows=1;rowLines=0;fontStyle=1;align=center;resizeLast=1;" vertex="1" parent="5oUkKl5Ig3Eirwiq1jfx-2">
                    <mxGeometry x="70" y="70" width="180" height="160" as="geometry"/>
                </mxCell>
                <mxCell id="5oUkKl5Ig3Eirwiq1jfx-4" value="" style="shape=partialRectangle;collapsible=0;dropTarget=0;pointerEvents=0;fillColor=none;top=0;left=0;bottom=0;right=0;points=[[0,0.5],[1,0.5]];portConstraint=eastwest;" vertex="1" parent="5oUkKl5Ig3Eirwiq1jfx-3">
                    <mxGeometry y="30" width="180" height="30" as="geometry"/>
                </mxCell>
                <mxCell id="5oUkKl5Ig3Eirwiq1jfx-5" value="String" style="shape=partialRectangle;connectable=0;fillColor=none;top=0;left=0;bottom=0;right=0;editable=1;overflow=hidden;" vertex="1" parent="5oUkKl5Ig3Eirwiq1jfx-4">
                    <mxGeometry width="71" height="30" as="geometry">
                        <mxRectangle width="71" height="30" as="alternateBounds"/>
                    </mxGeometry>
                </mxCell>
                <mxCell id="5oUkKl5Ig3Eirwiq1jfx-6" value="userName" style="shape=partialRectangle;connectable=0;fillColor=none;top=0;left=0;bottom=0;right=0;align=left;spacingLeft=6;overflow=hidden;" vertex="1" parent="5oUkKl5Ig3Eirwiq1jfx-4">
                    <mxGeometry x="71" width="109" height="30" as="geometry">
                        <mxRectangle width="109" height="30" as="alternateBounds"/>
                    </mxGeometry>
                </mxCell>
                <mxCell id="5oUkKl5Ig3Eirwiq1jfx-7" value="" style="shape=partialRectangle;collapsible=0;dropTarget=0;pointerEvents=0;fillColor=none;top=0;left=0;bottom=0;right=0;points=[[0,0.5],[1,0.5]];portConstraint=eastwest;" vertex="1" parent="5oUkKl5Ig3Eirwiq1jfx-3">
                    <mxGeometry y="60" width="180" height="30" as="geometry"/>
                </mxCell>
                <mxCell id="5oUkKl5Ig3Eirwiq1jfx-8" value="String" style="shape=partialRectangle;connectable=0;fillColor=none;top=0;left=0;bottom=0;right=0;editable=1;overflow=hidden;" vertex="1" parent="5oUkKl5Ig3Eirwiq1jfx-7">
                    <mxGeometry width="71" height="30" as="geometry">
                        <mxRectangle width="71" height="30" as="alternateBounds"/>
                    </mxGeometry>
                </mxCell>
                <mxCell id="5oUkKl5Ig3Eirwiq1jfx-9" value="email" style="shape=partialRectangle;connectable=0;fillColor=none;top=0;left=0;bottom=0;right=0;align=left;spacingLeft=6;overflow=hidden;" vertex="1" parent="5oUkKl5Ig3Eirwiq1jfx-7">
                    <mxGeometry x="71" width="109" height="30" as="geometry">
                        <mxRectangle width="109" height="30" as="alternateBounds"/>
                    </mxGeometry>
                </mxCell>
                <mxCell id="5oUkKl5Ig3Eirwiq1jfx-10" value="" style="shape=partialRectangle;collapsible=0;dropTarget=0;pointerEvents=0;fillColor=none;top=0;left=0;bottom=0;right=0;points=[[0,0.5],[1,0.5]];portConstraint=eastwest;" vertex="1" parent="5oUkKl5Ig3Eirwiq1jfx-3">
                    <mxGeometry y="90" width="180" height="30" as="geometry"/>
                </mxCell>
                <mxCell id="5oUkKl5Ig3Eirwiq1jfx-11" value="String" style="shape=partialRectangle;connectable=0;fillColor=none;top=0;left=0;bottom=0;right=0;editable=1;overflow=hidden;" vertex="1" parent="5oUkKl5Ig3Eirwiq1jfx-10">
                    <mxGeometry width="71" height="30" as="geometry">
                        <mxRectangle width="71" height="30" as="alternateBounds"/>
                    </mxGeometry>
                </mxCell>
                <mxCell id="5oUkKl5Ig3Eirwiq1jfx-12" value="password" style="shape=partialRectangle;connectable=0;fillColor=none;top=0;left=0;bottom=0;right=0;align=left;spacingLeft=6;overflow=hidden;" vertex="1" parent="5oUkKl5Ig3Eirwiq1jfx-10">
                    <mxGeometry x="71" width="109" height="30" as="geometry">
                        <mxRectangle width="109" height="30" as="alternateBounds"/>
                    </mxGeometry>
                </mxCell>
                <mxCell id="5oUkKl5Ig3Eirwiq1jfx-13" value="" style="shape=partialRectangle;collapsible=0;dropTarget=0;pointerEvents=0;fillColor=none;top=0;left=0;bottom=0;right=0;points=[[0,0.5],[1,0.5]];portConstraint=eastwest;" vertex="1" parent="5oUkKl5Ig3Eirwiq1jfx-3">
                    <mxGeometry y="120" width="180" height="30" as="geometry"/>
                </mxCell>
                <mxCell id="5oUkKl5Ig3Eirwiq1jfx-14" value="String" style="shape=partialRectangle;connectable=0;fillColor=none;top=0;left=0;bottom=0;right=0;editable=1;overflow=hidden;" vertex="1" parent="5oUkKl5Ig3Eirwiq1jfx-13">
                    <mxGeometry width="71" height="30" as="geometry">
                        <mxRectangle width="71" height="30" as="alternateBounds"/>
                    </mxGeometry>
                </mxCell>
                <mxCell id="5oUkKl5Ig3Eirwiq1jfx-15" value="engineerType" style="shape=partialRectangle;connectable=0;fillColor=none;top=0;left=0;bottom=0;right=0;align=left;spacingLeft=6;overflow=hidden;" vertex="1" parent="5oUkKl5Ig3Eirwiq1jfx-13">
                    <mxGeometry x="71" width="109" height="30" as="geometry">
                        <mxRectangle width="109" height="30" as="alternateBounds"/>
                    </mxGeometry>
                </mxCell>
                <mxCell id="5oUkKl5Ig3Eirwiq1jfx-16" value="Back" style="swimlane;" vertex="1" parent="5oUkKl5Ig3Eirwiq1jfx-1">
                    <mxGeometry x="454" y="60" width="320" height="320" as="geometry"/>
                </mxCell>
                <mxCell id="5oUkKl5Ig3Eirwiq1jfx-17" value="data" style="shape=table;startSize=30;container=1;collapsible=1;childLayout=tableLayout;fixedRows=1;rowLines=0;fontStyle=1;align=center;resizeLast=1;" vertex="1" parent="5oUkKl5Ig3Eirwiq1jfx-16">
                    <mxGeometry x="50" y="115" width="220" height="70" as="geometry"/>
                </mxCell>
                <mxCell id="5oUkKl5Ig3Eirwiq1jfx-18" value="" style="shape=partialRectangle;collapsible=0;dropTarget=0;pointerEvents=0;fillColor=none;top=0;left=0;bottom=0;right=0;points=[[0,0.5],[1,0.5]];portConstraint=eastwest;" vertex="1" parent="5oUkKl5Ig3Eirwiq1jfx-17">
                    <mxGeometry y="30" width="220" height="30" as="geometry"/>
                </mxCell>
                <mxCell id="5oUkKl5Ig3Eirwiq1jfx-19" value="status" style="shape=partialRectangle;connectable=0;fillColor=none;top=0;left=0;bottom=0;right=0;editable=1;overflow=hidden;" vertex="1" parent="5oUkKl5Ig3Eirwiq1jfx-18">
                    <mxGeometry width="80" height="30" as="geometry">
                        <mxRectangle width="80" height="30" as="alternateBounds"/>
                    </mxGeometry>
                </mxCell>
                <mxCell id="5oUkKl5Ig3Eirwiq1jfx-20" value="success / error" style="shape=partialRectangle;connectable=0;fillColor=none;top=0;left=0;bottom=0;right=0;align=left;spacingLeft=6;overflow=hidden;" vertex="1" parent="5oUkKl5Ig3Eirwiq1jfx-18">
                    <mxGeometry x="80" width="140" height="30" as="geometry">
                        <mxRectangle width="140" height="30" as="alternateBounds"/>
                    </mxGeometry>
                </mxCell>
                <mxCell id="5oUkKl5Ig3Eirwiq1jfx-21" value="&lt;font style=&quot;font-size: 14px&quot;&gt;user / register&lt;/font&gt;" style="endArrow=open;endSize=12;dashed=1;html=1;" edge="1" parent="5oUkKl5Ig3Eirwiq1jfx-1" source="5oUkKl5Ig3Eirwiq1jfx-3" target="5oUkKl5Ig3Eirwiq1jfx-17">
                    <mxGeometry width="160" relative="1" as="geometry">
                        <mxPoint x="310" y="145" as="sourcePoint"/>
                        <mxPoint x="510" y="145" as="targetPoint"/>
                    </mxGeometry>
                </mxCell>
            </root>
        </mxGraphModel>
    </diagram>
    <diagram id="a6rMjPs5wfocDlc1nqnn" name="LIKE">
        <mxGraphModel dx="1400" dy="406" grid="1" gridSize="10" guides="1" tooltips="1" connect="1" arrows="1" fold="1" page="1" pageScale="1" pageWidth="827" pageHeight="1169" math="0" shadow="0">
            <root>
                <mxCell id="_rtUUi3EDt1woYouQjdN-0"/>
                <mxCell id="_rtUUi3EDt1woYouQjdN-1" parent="_rtUUi3EDt1woYouQjdN-0"/>
                <mxCell id="_rtUUi3EDt1woYouQjdN-2" value="Front" style="swimlane;" vertex="1" parent="_rtUUi3EDt1woYouQjdN-1">
                    <mxGeometry x="40" y="70" width="320" height="240" as="geometry"/>
                </mxCell>
                <mxCell id="_rtUUi3EDt1woYouQjdN-3" value="Post" style="shape=table;startSize=30;container=1;collapsible=1;childLayout=tableLayout;fixedRows=1;rowLines=0;fontStyle=1;align=center;resizeLast=1;" vertex="1" parent="_rtUUi3EDt1woYouQjdN-2">
                    <mxGeometry x="70" y="70" width="180" height="100" as="geometry"/>
                </mxCell>
                <mxCell id="_rtUUi3EDt1woYouQjdN-4" value="" style="shape=partialRectangle;collapsible=0;dropTarget=0;pointerEvents=0;fillColor=none;top=0;left=0;bottom=0;right=0;points=[[0,0.5],[1,0.5]];portConstraint=eastwest;" vertex="1" parent="_rtUUi3EDt1woYouQjdN-3">
                    <mxGeometry y="30" width="180" height="30" as="geometry"/>
                </mxCell>
                <mxCell id="_rtUUi3EDt1woYouQjdN-5" value="Integer" style="shape=partialRectangle;connectable=0;fillColor=none;top=0;left=0;bottom=0;right=0;editable=1;overflow=hidden;" vertex="1" parent="_rtUUi3EDt1woYouQjdN-4">
                    <mxGeometry width="71" height="30" as="geometry">
                        <mxRectangle width="71" height="30" as="alternateBounds"/>
                    </mxGeometry>
                </mxCell>
                <mxCell id="_rtUUi3EDt1woYouQjdN-6" value="userInfoId" style="shape=partialRectangle;connectable=0;fillColor=none;top=0;left=0;bottom=0;right=0;align=left;spacingLeft=6;overflow=hidden;" vertex="1" parent="_rtUUi3EDt1woYouQjdN-4">
                    <mxGeometry x="71" width="109" height="30" as="geometry">
                        <mxRectangle width="109" height="30" as="alternateBounds"/>
                    </mxGeometry>
                </mxCell>
                <mxCell id="_rtUUi3EDt1woYouQjdN-7" value="" style="shape=partialRectangle;collapsible=0;dropTarget=0;pointerEvents=0;fillColor=none;top=0;left=0;bottom=0;right=0;points=[[0,0.5],[1,0.5]];portConstraint=eastwest;" vertex="1" parent="_rtUUi3EDt1woYouQjdN-3">
                    <mxGeometry y="60" width="180" height="30" as="geometry"/>
                </mxCell>
                <mxCell id="_rtUUi3EDt1woYouQjdN-8" value="Integer" style="shape=partialRectangle;connectable=0;fillColor=none;top=0;left=0;bottom=0;right=0;editable=1;overflow=hidden;" vertex="1" parent="_rtUUi3EDt1woYouQjdN-7">
                    <mxGeometry width="71" height="30" as="geometry">
                        <mxRectangle width="71" height="30" as="alternateBounds"/>
                    </mxGeometry>
                </mxCell>
                <mxCell id="_rtUUi3EDt1woYouQjdN-9" value="articleId" style="shape=partialRectangle;connectable=0;fillColor=none;top=0;left=0;bottom=0;right=0;align=left;spacingLeft=6;overflow=hidden;" vertex="1" parent="_rtUUi3EDt1woYouQjdN-7">
                    <mxGeometry x="71" width="109" height="30" as="geometry">
                        <mxRectangle width="109" height="30" as="alternateBounds"/>
                    </mxGeometry>
                </mxCell>
                <mxCell id="_rtUUi3EDt1woYouQjdN-10" value="Back" style="swimlane;" vertex="1" parent="_rtUUi3EDt1woYouQjdN-1">
                    <mxGeometry x="440" y="70" width="320" height="430" as="geometry"/>
                </mxCell>
                <mxCell id="_rtUUi3EDt1woYouQjdN-11" value="data" style="shape=table;startSize=30;container=1;collapsible=1;childLayout=tableLayout;fixedRows=1;rowLines=0;fontStyle=1;align=center;resizeLast=1;" vertex="1" parent="_rtUUi3EDt1woYouQjdN-10">
                    <mxGeometry x="70" y="70" width="180" height="100" as="geometry"/>
                </mxCell>
                <mxCell id="_rtUUi3EDt1woYouQjdN-12" value="" style="shape=partialRectangle;collapsible=0;dropTarget=0;pointerEvents=0;fillColor=none;top=0;left=0;bottom=0;right=0;points=[[0,0.5],[1,0.5]];portConstraint=eastwest;" vertex="1" parent="_rtUUi3EDt1woYouQjdN-11">
                    <mxGeometry y="30" width="180" height="30" as="geometry"/>
                </mxCell>
                <mxCell id="_rtUUi3EDt1woYouQjdN-13" value="status" style="shape=partialRectangle;connectable=0;fillColor=none;top=0;left=0;bottom=0;right=0;editable=1;overflow=hidden;" vertex="1" parent="_rtUUi3EDt1woYouQjdN-12">
                    <mxGeometry width="80" height="30" as="geometry">
                        <mxRectangle width="80" height="30" as="alternateBounds"/>
                    </mxGeometry>
                </mxCell>
                <mxCell id="_rtUUi3EDt1woYouQjdN-14" value="success / error" style="shape=partialRectangle;connectable=0;fillColor=none;top=0;left=0;bottom=0;right=0;align=left;spacingLeft=6;overflow=hidden;" vertex="1" parent="_rtUUi3EDt1woYouQjdN-12">
                    <mxGeometry x="80" width="100" height="30" as="geometry">
                        <mxRectangle width="100" height="30" as="alternateBounds"/>
                    </mxGeometry>
                </mxCell>
                <mxCell id="_rtUUi3EDt1woYouQjdN-15" value="" style="shape=partialRectangle;collapsible=0;dropTarget=0;pointerEvents=0;fillColor=none;top=0;left=0;bottom=0;right=0;points=[[0,0.5],[1,0.5]];portConstraint=eastwest;" vertex="1" parent="_rtUUi3EDt1woYouQjdN-11">
                    <mxGeometry y="60" width="180" height="30" as="geometry"/>
                </mxCell>
                <mxCell id="_rtUUi3EDt1woYouQjdN-16" value="List" style="shape=partialRectangle;connectable=0;fillColor=none;top=0;left=0;bottom=0;right=0;editable=1;overflow=hidden;" vertex="1" parent="_rtUUi3EDt1woYouQjdN-15">
                    <mxGeometry width="80" height="30" as="geometry">
                        <mxRectangle width="80" height="30" as="alternateBounds"/>
                    </mxGeometry>
                </mxCell>
                <mxCell id="_rtUUi3EDt1woYouQjdN-17" value="likesUserList" style="shape=partialRectangle;connectable=0;fillColor=none;top=0;left=0;bottom=0;right=0;align=left;spacingLeft=6;overflow=hidden;" vertex="1" parent="_rtUUi3EDt1woYouQjdN-15">
                    <mxGeometry x="80" width="100" height="30" as="geometry">
                        <mxRectangle width="100" height="30" as="alternateBounds"/>
                    </mxGeometry>
                </mxCell>
                <mxCell id="_rtUUi3EDt1woYouQjdN-18" value="likesUserList" style="shape=table;startSize=30;container=1;collapsible=1;childLayout=tableLayout;fixedRows=1;rowLines=0;fontStyle=1;align=center;resizeLast=1;" vertex="1" parent="_rtUUi3EDt1woYouQjdN-10">
                    <mxGeometry x="80" y="200" width="160" height="190" as="geometry"/>
                </mxCell>
                <mxCell id="_rtUUi3EDt1woYouQjdN-19" value="" style="shape=partialRectangle;collapsible=0;dropTarget=0;pointerEvents=0;fillColor=none;top=0;left=0;bottom=0;right=0;points=[[0,0.5],[1,0.5]];portConstraint=eastwest;" vertex="1" parent="_rtUUi3EDt1woYouQjdN-18">
                    <mxGeometry y="30" width="160" height="30" as="geometry"/>
                </mxCell>
                <mxCell id="_rtUUi3EDt1woYouQjdN-20" value="Integer" style="shape=partialRectangle;connectable=0;fillColor=none;top=0;left=0;bottom=0;right=0;editable=1;overflow=hidden;" vertex="1" parent="_rtUUi3EDt1woYouQjdN-19">
                    <mxGeometry width="60" height="30" as="geometry">
                        <mxRectangle width="60" height="30" as="alternateBounds"/>
                    </mxGeometry>
                </mxCell>
                <mxCell id="_rtUUi3EDt1woYouQjdN-21" value="id" style="shape=partialRectangle;connectable=0;fillColor=none;top=0;left=0;bottom=0;right=0;align=left;spacingLeft=6;overflow=hidden;" vertex="1" parent="_rtUUi3EDt1woYouQjdN-19">
                    <mxGeometry x="60" width="100" height="30" as="geometry">
                        <mxRectangle width="100" height="30" as="alternateBounds"/>
                    </mxGeometry>
                </mxCell>
                <mxCell id="_rtUUi3EDt1woYouQjdN-22" value="" style="shape=partialRectangle;collapsible=0;dropTarget=0;pointerEvents=0;fillColor=none;top=0;left=0;bottom=0;right=0;points=[[0,0.5],[1,0.5]];portConstraint=eastwest;" vertex="1" parent="_rtUUi3EDt1woYouQjdN-18">
                    <mxGeometry y="60" width="160" height="30" as="geometry"/>
                </mxCell>
                <mxCell id="_rtUUi3EDt1woYouQjdN-23" value="String" style="shape=partialRectangle;connectable=0;fillColor=none;top=0;left=0;bottom=0;right=0;editable=1;overflow=hidden;" vertex="1" parent="_rtUUi3EDt1woYouQjdN-22">
                    <mxGeometry width="60" height="30" as="geometry">
                        <mxRectangle width="60" height="30" as="alternateBounds"/>
                    </mxGeometry>
                </mxCell>
                <mxCell id="_rtUUi3EDt1woYouQjdN-24" value="userName" style="shape=partialRectangle;connectable=0;fillColor=none;top=0;left=0;bottom=0;right=0;align=left;spacingLeft=6;overflow=hidden;" vertex="1" parent="_rtUUi3EDt1woYouQjdN-22">
                    <mxGeometry x="60" width="100" height="30" as="geometry">
                        <mxRectangle width="100" height="30" as="alternateBounds"/>
                    </mxGeometry>
                </mxCell>
                <mxCell id="_rtUUi3EDt1woYouQjdN-25" value="" style="shape=partialRectangle;collapsible=0;dropTarget=0;pointerEvents=0;fillColor=none;top=0;left=0;bottom=0;right=0;points=[[0,0.5],[1,0.5]];portConstraint=eastwest;" vertex="1" parent="_rtUUi3EDt1woYouQjdN-18">
                    <mxGeometry y="90" width="160" height="30" as="geometry"/>
                </mxCell>
                <mxCell id="_rtUUi3EDt1woYouQjdN-26" value="String" style="shape=partialRectangle;connectable=0;fillColor=none;top=0;left=0;bottom=0;right=0;editable=1;overflow=hidden;" vertex="1" parent="_rtUUi3EDt1woYouQjdN-25">
                    <mxGeometry width="60" height="30" as="geometry">
                        <mxRectangle width="60" height="30" as="alternateBounds"/>
                    </mxGeometry>
                </mxCell>
                <mxCell id="_rtUUi3EDt1woYouQjdN-27" value="engineerType" style="shape=partialRectangle;connectable=0;fillColor=none;top=0;left=0;bottom=0;right=0;align=left;spacingLeft=6;overflow=hidden;" vertex="1" parent="_rtUUi3EDt1woYouQjdN-25">
                    <mxGeometry x="60" width="100" height="30" as="geometry">
                        <mxRectangle width="100" height="30" as="alternateBounds"/>
                    </mxGeometry>
                </mxCell>
                <mxCell id="_rtUUi3EDt1woYouQjdN-28" value="" style="shape=partialRectangle;collapsible=0;dropTarget=0;pointerEvents=0;fillColor=none;top=0;left=0;bottom=0;right=0;points=[[0,0.5],[1,0.5]];portConstraint=eastwest;" vertex="1" parent="_rtUUi3EDt1woYouQjdN-18">
                    <mxGeometry y="120" width="160" height="30" as="geometry"/>
                </mxCell>
                <mxCell id="_rtUUi3EDt1woYouQjdN-29" value="String" style="shape=partialRectangle;connectable=0;fillColor=none;top=0;left=0;bottom=0;right=0;editable=1;overflow=hidden;" vertex="1" parent="_rtUUi3EDt1woYouQjdN-28">
                    <mxGeometry width="60" height="30" as="geometry">
                        <mxRectangle width="60" height="30" as="alternateBounds"/>
                    </mxGeometry>
                </mxCell>
                <mxCell id="_rtUUi3EDt1woYouQjdN-30" value="description" style="shape=partialRectangle;connectable=0;fillColor=none;top=0;left=0;bottom=0;right=0;align=left;spacingLeft=6;overflow=hidden;" vertex="1" parent="_rtUUi3EDt1woYouQjdN-28">
                    <mxGeometry x="60" width="100" height="30" as="geometry">
                        <mxRectangle width="100" height="30" as="alternateBounds"/>
                    </mxGeometry>
                </mxCell>
                <mxCell id="_rtUUi3EDt1woYouQjdN-31" value="" style="shape=partialRectangle;collapsible=0;dropTarget=0;pointerEvents=0;fillColor=none;top=0;left=0;bottom=0;right=0;points=[[0,0.5],[1,0.5]];portConstraint=eastwest;" vertex="1" parent="_rtUUi3EDt1woYouQjdN-18">
                    <mxGeometry y="150" width="160" height="30" as="geometry"/>
                </mxCell>
                <mxCell id="_rtUUi3EDt1woYouQjdN-32" value="Integer" style="shape=partialRectangle;connectable=0;fillColor=none;top=0;left=0;bottom=0;right=0;editable=1;overflow=hidden;" vertex="1" parent="_rtUUi3EDt1woYouQjdN-31">
                    <mxGeometry width="60" height="30" as="geometry">
                        <mxRectangle width="60" height="30" as="alternateBounds"/>
                    </mxGeometry>
                </mxCell>
                <mxCell id="_rtUUi3EDt1woYouQjdN-33" value="followStatus" style="shape=partialRectangle;connectable=0;fillColor=none;top=0;left=0;bottom=0;right=0;align=left;spacingLeft=6;overflow=hidden;" vertex="1" parent="_rtUUi3EDt1woYouQjdN-31">
                    <mxGeometry x="60" width="100" height="30" as="geometry">
                        <mxRectangle width="100" height="30" as="alternateBounds"/>
                    </mxGeometry>
                </mxCell>
                <mxCell id="_rtUUi3EDt1woYouQjdN-34" value="" style="edgeStyle=entityRelationEdgeStyle;fontSize=12;html=1;endArrow=ERoneToMany;" edge="1" parent="_rtUUi3EDt1woYouQjdN-10" source="_rtUUi3EDt1woYouQjdN-18" target="_rtUUi3EDt1woYouQjdN-15">
                    <mxGeometry width="100" height="100" relative="1" as="geometry">
                        <mxPoint x="-240" y="510" as="sourcePoint"/>
                        <mxPoint x="-140" y="410" as="targetPoint"/>
                    </mxGeometry>
                </mxCell>
                <mxCell id="_rtUUi3EDt1woYouQjdN-35" value="&lt;font style=&quot;font-size: 14px&quot;&gt;article / like&lt;/font&gt;" style="endArrow=open;endSize=12;dashed=1;html=1;" edge="1" parent="_rtUUi3EDt1woYouQjdN-1" source="_rtUUi3EDt1woYouQjdN-3" target="_rtUUi3EDt1woYouQjdN-11">
                    <mxGeometry width="160" relative="1" as="geometry">
                        <mxPoint x="300" y="180" as="sourcePoint"/>
                        <mxPoint x="510" y="155" as="targetPoint"/>
                    </mxGeometry>
                </mxCell>
                <mxCell id="_rtUUi3EDt1woYouQjdN-36" value="Front" style="swimlane;" vertex="1" parent="_rtUUi3EDt1woYouQjdN-1">
                    <mxGeometry x="40" y="625" width="320" height="240" as="geometry"/>
                </mxCell>
                <mxCell id="_rtUUi3EDt1woYouQjdN-37" value="Post" style="shape=table;startSize=30;container=1;collapsible=1;childLayout=tableLayout;fixedRows=1;rowLines=0;fontStyle=1;align=center;resizeLast=1;" vertex="1" parent="_rtUUi3EDt1woYouQjdN-36">
                    <mxGeometry x="70" y="70" width="180" height="100" as="geometry"/>
                </mxCell>
                <mxCell id="_rtUUi3EDt1woYouQjdN-38" value="" style="shape=partialRectangle;collapsible=0;dropTarget=0;pointerEvents=0;fillColor=none;top=0;left=0;bottom=0;right=0;points=[[0,0.5],[1,0.5]];portConstraint=eastwest;" vertex="1" parent="_rtUUi3EDt1woYouQjdN-37">
                    <mxGeometry y="30" width="180" height="30" as="geometry"/>
                </mxCell>
                <mxCell id="_rtUUi3EDt1woYouQjdN-39" value="Integer" style="shape=partialRectangle;connectable=0;fillColor=none;top=0;left=0;bottom=0;right=0;editable=1;overflow=hidden;" vertex="1" parent="_rtUUi3EDt1woYouQjdN-38">
                    <mxGeometry width="71" height="30" as="geometry">
                        <mxRectangle width="71" height="30" as="alternateBounds"/>
                    </mxGeometry>
                </mxCell>
                <mxCell id="_rtUUi3EDt1woYouQjdN-40" value="userInfoId" style="shape=partialRectangle;connectable=0;fillColor=none;top=0;left=0;bottom=0;right=0;align=left;spacingLeft=6;overflow=hidden;" vertex="1" parent="_rtUUi3EDt1woYouQjdN-38">
                    <mxGeometry x="71" width="109" height="30" as="geometry">
                        <mxRectangle width="109" height="30" as="alternateBounds"/>
                    </mxGeometry>
                </mxCell>
                <mxCell id="_rtUUi3EDt1woYouQjdN-41" value="" style="shape=partialRectangle;collapsible=0;dropTarget=0;pointerEvents=0;fillColor=none;top=0;left=0;bottom=0;right=0;points=[[0,0.5],[1,0.5]];portConstraint=eastwest;" vertex="1" parent="_rtUUi3EDt1woYouQjdN-37">
                    <mxGeometry y="60" width="180" height="30" as="geometry"/>
                </mxCell>
                <mxCell id="_rtUUi3EDt1woYouQjdN-42" value="Integer" style="shape=partialRectangle;connectable=0;fillColor=none;top=0;left=0;bottom=0;right=0;editable=1;overflow=hidden;" vertex="1" parent="_rtUUi3EDt1woYouQjdN-41">
                    <mxGeometry width="71" height="30" as="geometry">
                        <mxRectangle width="71" height="30" as="alternateBounds"/>
                    </mxGeometry>
                </mxCell>
                <mxCell id="_rtUUi3EDt1woYouQjdN-43" value="articleId" style="shape=partialRectangle;connectable=0;fillColor=none;top=0;left=0;bottom=0;right=0;align=left;spacingLeft=6;overflow=hidden;" vertex="1" parent="_rtUUi3EDt1woYouQjdN-41">
                    <mxGeometry x="71" width="109" height="30" as="geometry">
                        <mxRectangle width="109" height="30" as="alternateBounds"/>
                    </mxGeometry>
                </mxCell>
                <mxCell id="_rtUUi3EDt1woYouQjdN-44" value="Back" style="swimlane;" vertex="1" parent="_rtUUi3EDt1woYouQjdN-1">
                    <mxGeometry x="440" y="625" width="320" height="420" as="geometry"/>
                </mxCell>
                <mxCell id="_rtUUi3EDt1woYouQjdN-45" value="data" style="shape=table;startSize=30;container=1;collapsible=1;childLayout=tableLayout;fixedRows=1;rowLines=0;fontStyle=1;align=center;resizeLast=1;" vertex="1" parent="_rtUUi3EDt1woYouQjdN-44">
                    <mxGeometry x="70" y="70" width="180" height="100" as="geometry"/>
                </mxCell>
                <mxCell id="_rtUUi3EDt1woYouQjdN-46" value="" style="shape=partialRectangle;collapsible=0;dropTarget=0;pointerEvents=0;fillColor=none;top=0;left=0;bottom=0;right=0;points=[[0,0.5],[1,0.5]];portConstraint=eastwest;" vertex="1" parent="_rtUUi3EDt1woYouQjdN-45">
                    <mxGeometry y="30" width="180" height="30" as="geometry"/>
                </mxCell>
                <mxCell id="_rtUUi3EDt1woYouQjdN-47" value="status" style="shape=partialRectangle;connectable=0;fillColor=none;top=0;left=0;bottom=0;right=0;editable=1;overflow=hidden;" vertex="1" parent="_rtUUi3EDt1woYouQjdN-46">
                    <mxGeometry width="80" height="30" as="geometry">
                        <mxRectangle width="80" height="30" as="alternateBounds"/>
                    </mxGeometry>
                </mxCell>
                <mxCell id="_rtUUi3EDt1woYouQjdN-48" value="success / error" style="shape=partialRectangle;connectable=0;fillColor=none;top=0;left=0;bottom=0;right=0;align=left;spacingLeft=6;overflow=hidden;" vertex="1" parent="_rtUUi3EDt1woYouQjdN-46">
                    <mxGeometry x="80" width="100" height="30" as="geometry">
                        <mxRectangle width="100" height="30" as="alternateBounds"/>
                    </mxGeometry>
                </mxCell>
                <mxCell id="_rtUUi3EDt1woYouQjdN-49" value="" style="shape=partialRectangle;collapsible=0;dropTarget=0;pointerEvents=0;fillColor=none;top=0;left=0;bottom=0;right=0;points=[[0,0.5],[1,0.5]];portConstraint=eastwest;" vertex="1" parent="_rtUUi3EDt1woYouQjdN-45">
                    <mxGeometry y="60" width="180" height="30" as="geometry"/>
                </mxCell>
                <mxCell id="_rtUUi3EDt1woYouQjdN-50" value="List" style="shape=partialRectangle;connectable=0;fillColor=none;top=0;left=0;bottom=0;right=0;editable=1;overflow=hidden;" vertex="1" parent="_rtUUi3EDt1woYouQjdN-49">
                    <mxGeometry width="80" height="30" as="geometry">
                        <mxRectangle width="80" height="30" as="alternateBounds"/>
                    </mxGeometry>
                </mxCell>
                <mxCell id="_rtUUi3EDt1woYouQjdN-51" value="likesUserList" style="shape=partialRectangle;connectable=0;fillColor=none;top=0;left=0;bottom=0;right=0;align=left;spacingLeft=6;overflow=hidden;" vertex="1" parent="_rtUUi3EDt1woYouQjdN-49">
                    <mxGeometry x="80" width="100" height="30" as="geometry">
                        <mxRectangle width="100" height="30" as="alternateBounds"/>
                    </mxGeometry>
                </mxCell>
                <mxCell id="_rtUUi3EDt1woYouQjdN-52" value="likesUserList" style="shape=table;startSize=30;container=1;collapsible=1;childLayout=tableLayout;fixedRows=1;rowLines=0;fontStyle=1;align=center;resizeLast=1;" vertex="1" parent="_rtUUi3EDt1woYouQjdN-44">
                    <mxGeometry x="80" y="200" width="160" height="190" as="geometry"/>
                </mxCell>
                <mxCell id="_rtUUi3EDt1woYouQjdN-53" value="" style="shape=partialRectangle;collapsible=0;dropTarget=0;pointerEvents=0;fillColor=none;top=0;left=0;bottom=0;right=0;points=[[0,0.5],[1,0.5]];portConstraint=eastwest;" vertex="1" parent="_rtUUi3EDt1woYouQjdN-52">
                    <mxGeometry y="30" width="160" height="30" as="geometry"/>
                </mxCell>
                <mxCell id="_rtUUi3EDt1woYouQjdN-54" value="Integer" style="shape=partialRectangle;connectable=0;fillColor=none;top=0;left=0;bottom=0;right=0;editable=1;overflow=hidden;" vertex="1" parent="_rtUUi3EDt1woYouQjdN-53">
                    <mxGeometry width="60" height="30" as="geometry">
                        <mxRectangle width="60" height="30" as="alternateBounds"/>
                    </mxGeometry>
                </mxCell>
                <mxCell id="_rtUUi3EDt1woYouQjdN-55" value="id" style="shape=partialRectangle;connectable=0;fillColor=none;top=0;left=0;bottom=0;right=0;align=left;spacingLeft=6;overflow=hidden;" vertex="1" parent="_rtUUi3EDt1woYouQjdN-53">
                    <mxGeometry x="60" width="100" height="30" as="geometry">
                        <mxRectangle width="100" height="30" as="alternateBounds"/>
                    </mxGeometry>
                </mxCell>
                <mxCell id="_rtUUi3EDt1woYouQjdN-56" value="" style="shape=partialRectangle;collapsible=0;dropTarget=0;pointerEvents=0;fillColor=none;top=0;left=0;bottom=0;right=0;points=[[0,0.5],[1,0.5]];portConstraint=eastwest;" vertex="1" parent="_rtUUi3EDt1woYouQjdN-52">
                    <mxGeometry y="60" width="160" height="30" as="geometry"/>
                </mxCell>
                <mxCell id="_rtUUi3EDt1woYouQjdN-57" value="String" style="shape=partialRectangle;connectable=0;fillColor=none;top=0;left=0;bottom=0;right=0;editable=1;overflow=hidden;" vertex="1" parent="_rtUUi3EDt1woYouQjdN-56">
                    <mxGeometry width="60" height="30" as="geometry">
                        <mxRectangle width="60" height="30" as="alternateBounds"/>
                    </mxGeometry>
                </mxCell>
                <mxCell id="_rtUUi3EDt1woYouQjdN-58" value="userName" style="shape=partialRectangle;connectable=0;fillColor=none;top=0;left=0;bottom=0;right=0;align=left;spacingLeft=6;overflow=hidden;" vertex="1" parent="_rtUUi3EDt1woYouQjdN-56">
                    <mxGeometry x="60" width="100" height="30" as="geometry">
                        <mxRectangle width="100" height="30" as="alternateBounds"/>
                    </mxGeometry>
                </mxCell>
                <mxCell id="_rtUUi3EDt1woYouQjdN-59" value="" style="shape=partialRectangle;collapsible=0;dropTarget=0;pointerEvents=0;fillColor=none;top=0;left=0;bottom=0;right=0;points=[[0,0.5],[1,0.5]];portConstraint=eastwest;" vertex="1" parent="_rtUUi3EDt1woYouQjdN-52">
                    <mxGeometry y="90" width="160" height="30" as="geometry"/>
                </mxCell>
                <mxCell id="_rtUUi3EDt1woYouQjdN-60" value="String" style="shape=partialRectangle;connectable=0;fillColor=none;top=0;left=0;bottom=0;right=0;editable=1;overflow=hidden;" vertex="1" parent="_rtUUi3EDt1woYouQjdN-59">
                    <mxGeometry width="60" height="30" as="geometry">
                        <mxRectangle width="60" height="30" as="alternateBounds"/>
                    </mxGeometry>
                </mxCell>
                <mxCell id="_rtUUi3EDt1woYouQjdN-61" value="engineerType" style="shape=partialRectangle;connectable=0;fillColor=none;top=0;left=0;bottom=0;right=0;align=left;spacingLeft=6;overflow=hidden;" vertex="1" parent="_rtUUi3EDt1woYouQjdN-59">
                    <mxGeometry x="60" width="100" height="30" as="geometry">
                        <mxRectangle width="100" height="30" as="alternateBounds"/>
                    </mxGeometry>
                </mxCell>
                <mxCell id="_rtUUi3EDt1woYouQjdN-62" value="" style="shape=partialRectangle;collapsible=0;dropTarget=0;pointerEvents=0;fillColor=none;top=0;left=0;bottom=0;right=0;points=[[0,0.5],[1,0.5]];portConstraint=eastwest;" vertex="1" parent="_rtUUi3EDt1woYouQjdN-52">
                    <mxGeometry y="120" width="160" height="30" as="geometry"/>
                </mxCell>
                <mxCell id="_rtUUi3EDt1woYouQjdN-63" value="String" style="shape=partialRectangle;connectable=0;fillColor=none;top=0;left=0;bottom=0;right=0;editable=1;overflow=hidden;" vertex="1" parent="_rtUUi3EDt1woYouQjdN-62">
                    <mxGeometry width="60" height="30" as="geometry">
                        <mxRectangle width="60" height="30" as="alternateBounds"/>
                    </mxGeometry>
                </mxCell>
                <mxCell id="_rtUUi3EDt1woYouQjdN-64" value="description" style="shape=partialRectangle;connectable=0;fillColor=none;top=0;left=0;bottom=0;right=0;align=left;spacingLeft=6;overflow=hidden;" vertex="1" parent="_rtUUi3EDt1woYouQjdN-62">
                    <mxGeometry x="60" width="100" height="30" as="geometry">
                        <mxRectangle width="100" height="30" as="alternateBounds"/>
                    </mxGeometry>
                </mxCell>
                <mxCell id="_rtUUi3EDt1woYouQjdN-65" value="" style="shape=partialRectangle;collapsible=0;dropTarget=0;pointerEvents=0;fillColor=none;top=0;left=0;bottom=0;right=0;points=[[0,0.5],[1,0.5]];portConstraint=eastwest;" vertex="1" parent="_rtUUi3EDt1woYouQjdN-52">
                    <mxGeometry y="150" width="160" height="30" as="geometry"/>
                </mxCell>
                <mxCell id="_rtUUi3EDt1woYouQjdN-66" value="Integer" style="shape=partialRectangle;connectable=0;fillColor=none;top=0;left=0;bottom=0;right=0;editable=1;overflow=hidden;" vertex="1" parent="_rtUUi3EDt1woYouQjdN-65">
                    <mxGeometry width="60" height="30" as="geometry">
                        <mxRectangle width="60" height="30" as="alternateBounds"/>
                    </mxGeometry>
                </mxCell>
                <mxCell id="_rtUUi3EDt1woYouQjdN-67" value="followStatus" style="shape=partialRectangle;connectable=0;fillColor=none;top=0;left=0;bottom=0;right=0;align=left;spacingLeft=6;overflow=hidden;" vertex="1" parent="_rtUUi3EDt1woYouQjdN-65">
                    <mxGeometry x="60" width="100" height="30" as="geometry">
                        <mxRectangle width="100" height="30" as="alternateBounds"/>
                    </mxGeometry>
                </mxCell>
                <mxCell id="_rtUUi3EDt1woYouQjdN-68" value="" style="edgeStyle=entityRelationEdgeStyle;fontSize=12;html=1;endArrow=ERoneToMany;" edge="1" parent="_rtUUi3EDt1woYouQjdN-44" source="_rtUUi3EDt1woYouQjdN-52" target="_rtUUi3EDt1woYouQjdN-49">
                    <mxGeometry width="100" height="100" relative="1" as="geometry">
                        <mxPoint x="310" y="110" as="sourcePoint"/>
                        <mxPoint x="320" y="-70" as="targetPoint"/>
                    </mxGeometry>
                </mxCell>
                <mxCell id="_rtUUi3EDt1woYouQjdN-69" value="&lt;font style=&quot;font-size: 14px&quot;&gt;article / removeLike&lt;br&gt;&lt;/font&gt;" style="endArrow=open;endSize=12;dashed=1;html=1;" edge="1" parent="_rtUUi3EDt1woYouQjdN-1" source="_rtUUi3EDt1woYouQjdN-37" target="_rtUUi3EDt1woYouQjdN-45">
                    <mxGeometry width="160" relative="1" as="geometry">
                        <mxPoint x="300" y="735" as="sourcePoint"/>
                        <mxPoint x="510" y="745" as="targetPoint"/>
                    </mxGeometry>
                </mxCell>
                <mxCell id="_rtUUi3EDt1woYouQjdN-70" value="いいね解除" style="rounded=1;arcSize=10;whiteSpace=wrap;html=1;align=center;fontSize=14;" vertex="1" parent="_rtUUi3EDt1woYouQjdN-1">
                    <mxGeometry x="40" y="585" width="100" height="40" as="geometry"/>
                </mxCell>
                <mxCell id="_rtUUi3EDt1woYouQjdN-71" value="いいね" style="rounded=1;arcSize=10;whiteSpace=wrap;html=1;align=center;fontSize=14;" vertex="1" parent="_rtUUi3EDt1woYouQjdN-1">
                    <mxGeometry x="40" y="30" width="100" height="40" as="geometry"/>
                </mxCell>
            </root>
        </mxGraphModel>
    </diagram>
    <diagram id="4ZuKGwB_CFM7J2H37snd" name="フォロー">
        <mxGraphModel dx="1400" dy="406" grid="1" gridSize="10" guides="1" tooltips="1" connect="1" arrows="1" fold="1" page="1" pageScale="1" pageWidth="827" pageHeight="1169" math="0" shadow="0">
            <root>
                <mxCell id="EluNc4-SZXuq5o5CfAlA-0"/>
                <mxCell id="EluNc4-SZXuq5o5CfAlA-1" parent="EluNc4-SZXuq5o5CfAlA-0"/>
                <mxCell id="tn3k2oC1imA4A23VxrdD-0" value="Front" style="swimlane;" vertex="1" parent="EluNc4-SZXuq5o5CfAlA-1">
                    <mxGeometry x="40" y="60" width="320" height="240" as="geometry"/>
                </mxCell>
                <mxCell id="tn3k2oC1imA4A23VxrdD-1" value="Post" style="shape=table;startSize=30;container=1;collapsible=1;childLayout=tableLayout;fixedRows=1;rowLines=0;fontStyle=1;align=center;resizeLast=1;" vertex="1" parent="tn3k2oC1imA4A23VxrdD-0">
                    <mxGeometry x="70" y="70" width="180" height="100" as="geometry"/>
                </mxCell>
                <mxCell id="tn3k2oC1imA4A23VxrdD-2" value="" style="shape=partialRectangle;collapsible=0;dropTarget=0;pointerEvents=0;fillColor=none;top=0;left=0;bottom=0;right=0;points=[[0,0.5],[1,0.5]];portConstraint=eastwest;" vertex="1" parent="tn3k2oC1imA4A23VxrdD-1">
                    <mxGeometry y="30" width="180" height="30" as="geometry"/>
                </mxCell>
                <mxCell id="tn3k2oC1imA4A23VxrdD-3" value="Integer" style="shape=partialRectangle;connectable=0;fillColor=none;top=0;left=0;bottom=0;right=0;editable=1;overflow=hidden;" vertex="1" parent="tn3k2oC1imA4A23VxrdD-2">
                    <mxGeometry width="71" height="30" as="geometry">
                        <mxRectangle width="71" height="30" as="alternateBounds"/>
                    </mxGeometry>
                </mxCell>
                <mxCell id="tn3k2oC1imA4A23VxrdD-4" value="userInfoId" style="shape=partialRectangle;connectable=0;fillColor=none;top=0;left=0;bottom=0;right=0;align=left;spacingLeft=6;overflow=hidden;" vertex="1" parent="tn3k2oC1imA4A23VxrdD-2">
                    <mxGeometry x="71" width="109" height="30" as="geometry">
                        <mxRectangle width="109" height="30" as="alternateBounds"/>
                    </mxGeometry>
                </mxCell>
                <mxCell id="tn3k2oC1imA4A23VxrdD-5" value="" style="shape=partialRectangle;collapsible=0;dropTarget=0;pointerEvents=0;fillColor=none;top=0;left=0;bottom=0;right=0;points=[[0,0.5],[1,0.5]];portConstraint=eastwest;" vertex="1" parent="tn3k2oC1imA4A23VxrdD-1">
                    <mxGeometry y="60" width="180" height="30" as="geometry"/>
                </mxCell>
                <mxCell id="tn3k2oC1imA4A23VxrdD-6" value="Integer" style="shape=partialRectangle;connectable=0;fillColor=none;top=0;left=0;bottom=0;right=0;editable=1;overflow=hidden;" vertex="1" parent="tn3k2oC1imA4A23VxrdD-5">
                    <mxGeometry width="71" height="30" as="geometry">
                        <mxRectangle width="71" height="30" as="alternateBounds"/>
                    </mxGeometry>
                </mxCell>
                <mxCell id="tn3k2oC1imA4A23VxrdD-7" value="followUserId" style="shape=partialRectangle;connectable=0;fillColor=none;top=0;left=0;bottom=0;right=0;align=left;spacingLeft=6;overflow=hidden;" vertex="1" parent="tn3k2oC1imA4A23VxrdD-5">
                    <mxGeometry x="71" width="109" height="30" as="geometry">
                        <mxRectangle width="109" height="30" as="alternateBounds"/>
                    </mxGeometry>
                </mxCell>
                <mxCell id="tn3k2oC1imA4A23VxrdD-8" value="Back" style="swimlane;" vertex="1" parent="EluNc4-SZXuq5o5CfAlA-1">
                    <mxGeometry x="440" y="60" width="320" height="240" as="geometry"/>
                </mxCell>
                <mxCell id="tn3k2oC1imA4A23VxrdD-9" value="data" style="shape=table;startSize=30;container=1;collapsible=1;childLayout=tableLayout;fixedRows=1;rowLines=0;fontStyle=1;align=center;resizeLast=1;" vertex="1" parent="tn3k2oC1imA4A23VxrdD-8">
                    <mxGeometry x="70" y="85" width="180" height="70" as="geometry"/>
                </mxCell>
                <mxCell id="tn3k2oC1imA4A23VxrdD-10" value="" style="shape=partialRectangle;collapsible=0;dropTarget=0;pointerEvents=0;fillColor=none;top=0;left=0;bottom=0;right=0;points=[[0,0.5],[1,0.5]];portConstraint=eastwest;" vertex="1" parent="tn3k2oC1imA4A23VxrdD-9">
                    <mxGeometry y="30" width="180" height="30" as="geometry"/>
                </mxCell>
                <mxCell id="tn3k2oC1imA4A23VxrdD-11" value="status" style="shape=partialRectangle;connectable=0;fillColor=none;top=0;left=0;bottom=0;right=0;editable=1;overflow=hidden;" vertex="1" parent="tn3k2oC1imA4A23VxrdD-10">
                    <mxGeometry width="80" height="30" as="geometry">
                        <mxRectangle width="80" height="30" as="alternateBounds"/>
                    </mxGeometry>
                </mxCell>
                <mxCell id="tn3k2oC1imA4A23VxrdD-12" value="success" style="shape=partialRectangle;connectable=0;fillColor=none;top=0;left=0;bottom=0;right=0;align=left;spacingLeft=6;overflow=hidden;" vertex="1" parent="tn3k2oC1imA4A23VxrdD-10">
                    <mxGeometry x="80" width="100" height="30" as="geometry">
                        <mxRectangle width="100" height="30" as="alternateBounds"/>
                    </mxGeometry>
                </mxCell>
                <mxCell id="tn3k2oC1imA4A23VxrdD-13" value="&lt;font style=&quot;font-size: 14px&quot;&gt;user / follow&lt;/font&gt;" style="endArrow=open;endSize=12;dashed=1;html=1;" edge="1" parent="EluNc4-SZXuq5o5CfAlA-1" source="tn3k2oC1imA4A23VxrdD-1" target="tn3k2oC1imA4A23VxrdD-9">
                    <mxGeometry width="160" relative="1" as="geometry">
                        <mxPoint x="300" y="170" as="sourcePoint"/>
                        <mxPoint x="510" y="145" as="targetPoint"/>
                    </mxGeometry>
                </mxCell>
                <mxCell id="tn3k2oC1imA4A23VxrdD-14" value="Front" style="swimlane;" vertex="1" parent="EluNc4-SZXuq5o5CfAlA-1">
                    <mxGeometry x="40" y="380" width="320" height="240" as="geometry"/>
                </mxCell>
                <mxCell id="tn3k2oC1imA4A23VxrdD-15" value="Post" style="shape=table;startSize=30;container=1;collapsible=1;childLayout=tableLayout;fixedRows=1;rowLines=0;fontStyle=1;align=center;resizeLast=1;" vertex="1" parent="tn3k2oC1imA4A23VxrdD-14">
                    <mxGeometry x="70" y="70" width="180" height="100" as="geometry"/>
                </mxCell>
                <mxCell id="tn3k2oC1imA4A23VxrdD-16" value="" style="shape=partialRectangle;collapsible=0;dropTarget=0;pointerEvents=0;fillColor=none;top=0;left=0;bottom=0;right=0;points=[[0,0.5],[1,0.5]];portConstraint=eastwest;" vertex="1" parent="tn3k2oC1imA4A23VxrdD-15">
                    <mxGeometry y="30" width="180" height="30" as="geometry"/>
                </mxCell>
                <mxCell id="tn3k2oC1imA4A23VxrdD-17" value="Integer" style="shape=partialRectangle;connectable=0;fillColor=none;top=0;left=0;bottom=0;right=0;editable=1;overflow=hidden;" vertex="1" parent="tn3k2oC1imA4A23VxrdD-16">
                    <mxGeometry width="71" height="30" as="geometry">
                        <mxRectangle width="71" height="30" as="alternateBounds"/>
                    </mxGeometry>
                </mxCell>
                <mxCell id="tn3k2oC1imA4A23VxrdD-18" value="userInfoId" style="shape=partialRectangle;connectable=0;fillColor=none;top=0;left=0;bottom=0;right=0;align=left;spacingLeft=6;overflow=hidden;" vertex="1" parent="tn3k2oC1imA4A23VxrdD-16">
                    <mxGeometry x="71" width="109" height="30" as="geometry">
                        <mxRectangle width="109" height="30" as="alternateBounds"/>
                    </mxGeometry>
                </mxCell>
                <mxCell id="tn3k2oC1imA4A23VxrdD-19" value="" style="shape=partialRectangle;collapsible=0;dropTarget=0;pointerEvents=0;fillColor=none;top=0;left=0;bottom=0;right=0;points=[[0,0.5],[1,0.5]];portConstraint=eastwest;" vertex="1" parent="tn3k2oC1imA4A23VxrdD-15">
                    <mxGeometry y="60" width="180" height="30" as="geometry"/>
                </mxCell>
                <mxCell id="tn3k2oC1imA4A23VxrdD-20" value="Integer" style="shape=partialRectangle;connectable=0;fillColor=none;top=0;left=0;bottom=0;right=0;editable=1;overflow=hidden;" vertex="1" parent="tn3k2oC1imA4A23VxrdD-19">
                    <mxGeometry width="71" height="30" as="geometry">
                        <mxRectangle width="71" height="30" as="alternateBounds"/>
                    </mxGeometry>
                </mxCell>
                <mxCell id="tn3k2oC1imA4A23VxrdD-21" value="followUserId" style="shape=partialRectangle;connectable=0;fillColor=none;top=0;left=0;bottom=0;right=0;align=left;spacingLeft=6;overflow=hidden;" vertex="1" parent="tn3k2oC1imA4A23VxrdD-19">
                    <mxGeometry x="71" width="109" height="30" as="geometry">
                        <mxRectangle width="109" height="30" as="alternateBounds"/>
                    </mxGeometry>
                </mxCell>
                <mxCell id="tn3k2oC1imA4A23VxrdD-22" value="Back" style="swimlane;" vertex="1" parent="EluNc4-SZXuq5o5CfAlA-1">
                    <mxGeometry x="440" y="380" width="320" height="240" as="geometry"/>
                </mxCell>
                <mxCell id="tn3k2oC1imA4A23VxrdD-23" value="data" style="shape=table;startSize=30;container=1;collapsible=1;childLayout=tableLayout;fixedRows=1;rowLines=0;fontStyle=1;align=center;resizeLast=1;" vertex="1" parent="tn3k2oC1imA4A23VxrdD-22">
                    <mxGeometry x="70" y="85" width="180" height="70" as="geometry"/>
                </mxCell>
                <mxCell id="tn3k2oC1imA4A23VxrdD-24" value="" style="shape=partialRectangle;collapsible=0;dropTarget=0;pointerEvents=0;fillColor=none;top=0;left=0;bottom=0;right=0;points=[[0,0.5],[1,0.5]];portConstraint=eastwest;" vertex="1" parent="tn3k2oC1imA4A23VxrdD-23">
                    <mxGeometry y="30" width="180" height="30" as="geometry"/>
                </mxCell>
                <mxCell id="tn3k2oC1imA4A23VxrdD-25" value="status" style="shape=partialRectangle;connectable=0;fillColor=none;top=0;left=0;bottom=0;right=0;editable=1;overflow=hidden;" vertex="1" parent="tn3k2oC1imA4A23VxrdD-24">
                    <mxGeometry width="80" height="30" as="geometry">
                        <mxRectangle width="80" height="30" as="alternateBounds"/>
                    </mxGeometry>
                </mxCell>
                <mxCell id="tn3k2oC1imA4A23VxrdD-26" value="success" style="shape=partialRectangle;connectable=0;fillColor=none;top=0;left=0;bottom=0;right=0;align=left;spacingLeft=6;overflow=hidden;" vertex="1" parent="tn3k2oC1imA4A23VxrdD-24">
                    <mxGeometry x="80" width="100" height="30" as="geometry">
                        <mxRectangle width="100" height="30" as="alternateBounds"/>
                    </mxGeometry>
                </mxCell>
                <mxCell id="tn3k2oC1imA4A23VxrdD-27" value="&lt;font style=&quot;font-size: 14px&quot;&gt;user / remove&lt;/font&gt;" style="endArrow=open;endSize=12;dashed=1;html=1;" edge="1" parent="EluNc4-SZXuq5o5CfAlA-1" source="tn3k2oC1imA4A23VxrdD-15" target="tn3k2oC1imA4A23VxrdD-23">
                    <mxGeometry width="160" relative="1" as="geometry">
                        <mxPoint x="300" y="490" as="sourcePoint"/>
                        <mxPoint x="510" y="465" as="targetPoint"/>
                    </mxGeometry>
                </mxCell>
                <mxCell id="tn3k2oC1imA4A23VxrdD-28" value="フォロー" style="rounded=1;arcSize=10;whiteSpace=wrap;html=1;align=center;fontSize=14;" vertex="1" parent="EluNc4-SZXuq5o5CfAlA-1">
                    <mxGeometry x="40" y="20" width="100" height="40" as="geometry"/>
                </mxCell>
                <mxCell id="tn3k2oC1imA4A23VxrdD-29" value="フォロー解除" style="rounded=1;arcSize=10;whiteSpace=wrap;html=1;align=center;fontSize=14;" vertex="1" parent="EluNc4-SZXuq5o5CfAlA-1">
                    <mxGeometry x="40" y="340" width="100" height="40" as="geometry"/>
                </mxCell>
            </root>
        </mxGraphModel>
    </diagram>
    <diagram id="rjNLagTVcnEpqJ7wqttE" name="記事投稿">
        <mxGraphModel dx="1400" dy="406" grid="1" gridSize="10" guides="1" tooltips="1" connect="1" arrows="1" fold="1" page="1" pageScale="1" pageWidth="827" pageHeight="1169" math="0" shadow="0">
            <root>
                <mxCell id="66ce57i5j5F7sD7WschZ-0"/>
                <mxCell id="66ce57i5j5F7sD7WschZ-1" parent="66ce57i5j5F7sD7WschZ-0"/>
                <mxCell id="Fuiwj4I0-OSdqCqPlvHZ-0" value="Front" style="swimlane;" vertex="1" parent="66ce57i5j5F7sD7WschZ-1">
                    <mxGeometry x="79" y="60" width="320" height="380" as="geometry"/>
                </mxCell>
                <mxCell id="Fuiwj4I0-OSdqCqPlvHZ-1" value="Post" style="shape=table;startSize=30;container=1;collapsible=1;childLayout=tableLayout;fixedRows=1;rowLines=0;fontStyle=1;align=center;resizeLast=1;" vertex="1" parent="Fuiwj4I0-OSdqCqPlvHZ-0">
                    <mxGeometry x="70" y="60" width="180" height="160" as="geometry"/>
                </mxCell>
                <mxCell id="Fuiwj4I0-OSdqCqPlvHZ-2" value="" style="shape=partialRectangle;collapsible=0;dropTarget=0;pointerEvents=0;fillColor=none;top=0;left=0;bottom=0;right=0;points=[[0,0.5],[1,0.5]];portConstraint=eastwest;" vertex="1" parent="Fuiwj4I0-OSdqCqPlvHZ-1">
                    <mxGeometry y="30" width="180" height="30" as="geometry"/>
                </mxCell>
                <mxCell id="Fuiwj4I0-OSdqCqPlvHZ-3" value="Integer" style="shape=partialRectangle;connectable=0;fillColor=none;top=0;left=0;bottom=0;right=0;editable=1;overflow=hidden;" vertex="1" parent="Fuiwj4I0-OSdqCqPlvHZ-2">
                    <mxGeometry width="71" height="30" as="geometry">
                        <mxRectangle width="71" height="30" as="alternateBounds"/>
                    </mxGeometry>
                </mxCell>
                <mxCell id="Fuiwj4I0-OSdqCqPlvHZ-4" value="userInfoId" style="shape=partialRectangle;connectable=0;fillColor=none;top=0;left=0;bottom=0;right=0;align=left;spacingLeft=6;overflow=hidden;" vertex="1" parent="Fuiwj4I0-OSdqCqPlvHZ-2">
                    <mxGeometry x="71" width="109" height="30" as="geometry">
                        <mxRectangle width="109" height="30" as="alternateBounds"/>
                    </mxGeometry>
                </mxCell>
                <mxCell id="Fuiwj4I0-OSdqCqPlvHZ-5" value="" style="shape=partialRectangle;collapsible=0;dropTarget=0;pointerEvents=0;fillColor=none;top=0;left=0;bottom=0;right=0;points=[[0,0.5],[1,0.5]];portConstraint=eastwest;" vertex="1" parent="Fuiwj4I0-OSdqCqPlvHZ-1">
                    <mxGeometry y="60" width="180" height="30" as="geometry"/>
                </mxCell>
                <mxCell id="Fuiwj4I0-OSdqCqPlvHZ-6" value="String" style="shape=partialRectangle;connectable=0;fillColor=none;top=0;left=0;bottom=0;right=0;editable=1;overflow=hidden;" vertex="1" parent="Fuiwj4I0-OSdqCqPlvHZ-5">
                    <mxGeometry width="71" height="30" as="geometry">
                        <mxRectangle width="71" height="30" as="alternateBounds"/>
                    </mxGeometry>
                </mxCell>
                <mxCell id="Fuiwj4I0-OSdqCqPlvHZ-7" value="title" style="shape=partialRectangle;connectable=0;fillColor=none;top=0;left=0;bottom=0;right=0;align=left;spacingLeft=6;overflow=hidden;" vertex="1" parent="Fuiwj4I0-OSdqCqPlvHZ-5">
                    <mxGeometry x="71" width="109" height="30" as="geometry">
                        <mxRectangle width="109" height="30" as="alternateBounds"/>
                    </mxGeometry>
                </mxCell>
                <mxCell id="Fuiwj4I0-OSdqCqPlvHZ-8" value="" style="shape=partialRectangle;collapsible=0;dropTarget=0;pointerEvents=0;fillColor=none;top=0;left=0;bottom=0;right=0;points=[[0,0.5],[1,0.5]];portConstraint=eastwest;" vertex="1" parent="Fuiwj4I0-OSdqCqPlvHZ-1">
                    <mxGeometry y="90" width="180" height="30" as="geometry"/>
                </mxCell>
                <mxCell id="Fuiwj4I0-OSdqCqPlvHZ-9" value="String" style="shape=partialRectangle;connectable=0;fillColor=none;top=0;left=0;bottom=0;right=0;editable=1;overflow=hidden;" vertex="1" parent="Fuiwj4I0-OSdqCqPlvHZ-8">
                    <mxGeometry width="71" height="30" as="geometry">
                        <mxRectangle width="71" height="30" as="alternateBounds"/>
                    </mxGeometry>
                </mxCell>
                <mxCell id="Fuiwj4I0-OSdqCqPlvHZ-10" value="content" style="shape=partialRectangle;connectable=0;fillColor=none;top=0;left=0;bottom=0;right=0;align=left;spacingLeft=6;overflow=hidden;" vertex="1" parent="Fuiwj4I0-OSdqCqPlvHZ-8">
                    <mxGeometry x="71" width="109" height="30" as="geometry">
                        <mxRectangle width="109" height="30" as="alternateBounds"/>
                    </mxGeometry>
                </mxCell>
                <mxCell id="Fuiwj4I0-OSdqCqPlvHZ-11" value="" style="shape=partialRectangle;collapsible=0;dropTarget=0;pointerEvents=0;fillColor=none;top=0;left=0;bottom=0;right=0;points=[[0,0.5],[1,0.5]];portConstraint=eastwest;" vertex="1" parent="Fuiwj4I0-OSdqCqPlvHZ-1">
                    <mxGeometry y="120" width="180" height="30" as="geometry"/>
                </mxCell>
                <mxCell id="Fuiwj4I0-OSdqCqPlvHZ-12" value="List" style="shape=partialRectangle;connectable=0;fillColor=none;top=0;left=0;bottom=0;right=0;editable=1;overflow=hidden;" vertex="1" parent="Fuiwj4I0-OSdqCqPlvHZ-11">
                    <mxGeometry width="71" height="30" as="geometry">
                        <mxRectangle width="71" height="30" as="alternateBounds"/>
                    </mxGeometry>
                </mxCell>
                <mxCell id="Fuiwj4I0-OSdqCqPlvHZ-13" value="tags" style="shape=partialRectangle;connectable=0;fillColor=none;top=0;left=0;bottom=0;right=0;align=left;spacingLeft=6;overflow=hidden;" vertex="1" parent="Fuiwj4I0-OSdqCqPlvHZ-11">
                    <mxGeometry x="71" width="109" height="30" as="geometry">
                        <mxRectangle width="109" height="30" as="alternateBounds"/>
                    </mxGeometry>
                </mxCell>
                <mxCell id="Fuiwj4I0-OSdqCqPlvHZ-14" value="tags" style="shape=table;startSize=30;container=1;collapsible=1;childLayout=tableLayout;fixedRows=1;rowLines=0;fontStyle=1;align=center;resizeLast=1;" vertex="1" parent="Fuiwj4I0-OSdqCqPlvHZ-0">
                    <mxGeometry x="70" y="270" width="180" height="70" as="geometry"/>
                </mxCell>
                <mxCell id="Fuiwj4I0-OSdqCqPlvHZ-15" value="" style="shape=partialRectangle;collapsible=0;dropTarget=0;pointerEvents=0;fillColor=none;top=0;left=0;bottom=0;right=0;points=[[0,0.5],[1,0.5]];portConstraint=eastwest;" vertex="1" parent="Fuiwj4I0-OSdqCqPlvHZ-14">
                    <mxGeometry y="30" width="180" height="30" as="geometry"/>
                </mxCell>
                <mxCell id="Fuiwj4I0-OSdqCqPlvHZ-16" value="String" style="shape=partialRectangle;connectable=0;fillColor=none;top=0;left=0;bottom=0;right=0;editable=1;overflow=hidden;" vertex="1" parent="Fuiwj4I0-OSdqCqPlvHZ-15">
                    <mxGeometry width="71" height="30" as="geometry">
                        <mxRectangle width="71" height="30" as="alternateBounds"/>
                    </mxGeometry>
                </mxCell>
                <mxCell id="Fuiwj4I0-OSdqCqPlvHZ-17" value="tag" style="shape=partialRectangle;connectable=0;fillColor=none;top=0;left=0;bottom=0;right=0;align=left;spacingLeft=6;overflow=hidden;" vertex="1" parent="Fuiwj4I0-OSdqCqPlvHZ-15">
                    <mxGeometry x="71" width="109" height="30" as="geometry">
                        <mxRectangle width="109" height="30" as="alternateBounds"/>
                    </mxGeometry>
                </mxCell>
                <mxCell id="Fuiwj4I0-OSdqCqPlvHZ-18" value="" style="edgeStyle=entityRelationEdgeStyle;fontSize=12;html=1;endArrow=ERoneToMany;" edge="1" parent="Fuiwj4I0-OSdqCqPlvHZ-0" source="Fuiwj4I0-OSdqCqPlvHZ-14" target="Fuiwj4I0-OSdqCqPlvHZ-11">
                    <mxGeometry width="100" height="100" relative="1" as="geometry">
                        <mxPoint x="480" y="290" as="sourcePoint"/>
                        <mxPoint x="580" y="190" as="targetPoint"/>
                    </mxGeometry>
                </mxCell>
                <mxCell id="Fuiwj4I0-OSdqCqPlvHZ-19" value="Back" style="swimlane;" vertex="1" parent="66ce57i5j5F7sD7WschZ-1">
                    <mxGeometry x="509" y="60" width="240" height="320" as="geometry"/>
                </mxCell>
                <mxCell id="Fuiwj4I0-OSdqCqPlvHZ-20" value="data" style="shape=table;startSize=30;container=1;collapsible=1;childLayout=tableLayout;fixedRows=1;rowLines=0;fontStyle=1;align=center;resizeLast=1;" vertex="1" parent="Fuiwj4I0-OSdqCqPlvHZ-19">
                    <mxGeometry x="30" y="105" width="180" height="70" as="geometry"/>
                </mxCell>
                <mxCell id="Fuiwj4I0-OSdqCqPlvHZ-21" value="" style="shape=partialRectangle;collapsible=0;dropTarget=0;pointerEvents=0;fillColor=none;top=0;left=0;bottom=0;right=0;points=[[0,0.5],[1,0.5]];portConstraint=eastwest;" vertex="1" parent="Fuiwj4I0-OSdqCqPlvHZ-20">
                    <mxGeometry y="30" width="180" height="30" as="geometry"/>
                </mxCell>
                <mxCell id="Fuiwj4I0-OSdqCqPlvHZ-22" value="status" style="shape=partialRectangle;connectable=0;fillColor=none;top=0;left=0;bottom=0;right=0;editable=1;overflow=hidden;" vertex="1" parent="Fuiwj4I0-OSdqCqPlvHZ-21">
                    <mxGeometry width="80" height="30" as="geometry">
                        <mxRectangle width="80" height="30" as="alternateBounds"/>
                    </mxGeometry>
                </mxCell>
                <mxCell id="Fuiwj4I0-OSdqCqPlvHZ-23" value="success / error" style="shape=partialRectangle;connectable=0;fillColor=none;top=0;left=0;bottom=0;right=0;align=left;spacingLeft=6;overflow=hidden;" vertex="1" parent="Fuiwj4I0-OSdqCqPlvHZ-21">
                    <mxGeometry x="80" width="100" height="30" as="geometry">
                        <mxRectangle width="100" height="30" as="alternateBounds"/>
                    </mxGeometry>
                </mxCell>
                <mxCell id="Fuiwj4I0-OSdqCqPlvHZ-24" value="&lt;font style=&quot;font-size: 14px&quot;&gt;article / add&lt;/font&gt;" style="endArrow=open;endSize=12;dashed=1;html=1;" edge="1" parent="66ce57i5j5F7sD7WschZ-1" source="Fuiwj4I0-OSdqCqPlvHZ-1" target="Fuiwj4I0-OSdqCqPlvHZ-20">
                    <mxGeometry width="160" relative="1" as="geometry">
                        <mxPoint x="249" y="170" as="sourcePoint"/>
                        <mxPoint x="459" y="145" as="targetPoint"/>
                    </mxGeometry>
                </mxCell>
                <mxCell id="Fuiwj4I0-OSdqCqPlvHZ-25" value="&lt;font style=&quot;font-size: 14px&quot;&gt;新規投稿&lt;/font&gt;" style="rounded=1;whiteSpace=wrap;html=1;" vertex="1" parent="66ce57i5j5F7sD7WschZ-1">
                    <mxGeometry x="79" y="30" width="91" height="30" as="geometry"/>
                </mxCell>
                <mxCell id="Fuiwj4I0-OSdqCqPlvHZ-26" value="Front" style="swimlane;" vertex="1" parent="66ce57i5j5F7sD7WschZ-1">
                    <mxGeometry x="79" y="570" width="320" height="380" as="geometry"/>
                </mxCell>
                <mxCell id="Fuiwj4I0-OSdqCqPlvHZ-27" value="Post" style="shape=table;startSize=30;container=1;collapsible=1;childLayout=tableLayout;fixedRows=1;rowLines=0;fontStyle=1;align=center;resizeLast=1;" vertex="1" parent="Fuiwj4I0-OSdqCqPlvHZ-26">
                    <mxGeometry x="70" y="60" width="180" height="160" as="geometry"/>
                </mxCell>
                <mxCell id="Fuiwj4I0-OSdqCqPlvHZ-28" value="" style="shape=partialRectangle;collapsible=0;dropTarget=0;pointerEvents=0;fillColor=none;top=0;left=0;bottom=0;right=0;points=[[0,0.5],[1,0.5]];portConstraint=eastwest;strokeColor=#FF0000;" vertex="1" parent="Fuiwj4I0-OSdqCqPlvHZ-27">
                    <mxGeometry y="30" width="180" height="30" as="geometry"/>
                </mxCell>
                <mxCell id="Fuiwj4I0-OSdqCqPlvHZ-29" value="Integer" style="shape=partialRectangle;connectable=0;fillColor=none;top=0;left=0;bottom=0;right=0;editable=1;overflow=hidden;" vertex="1" parent="Fuiwj4I0-OSdqCqPlvHZ-28">
                    <mxGeometry width="71" height="30" as="geometry">
                        <mxRectangle width="71" height="30" as="alternateBounds"/>
                    </mxGeometry>
                </mxCell>
                <mxCell id="Fuiwj4I0-OSdqCqPlvHZ-30" value="userInfoId" style="shape=partialRectangle;connectable=0;fillColor=none;top=0;left=0;bottom=0;right=0;align=left;spacingLeft=6;overflow=hidden;" vertex="1" parent="Fuiwj4I0-OSdqCqPlvHZ-28">
                    <mxGeometry x="71" width="109" height="30" as="geometry">
                        <mxRectangle width="109" height="30" as="alternateBounds"/>
                    </mxGeometry>
                </mxCell>
                <mxCell id="Fuiwj4I0-OSdqCqPlvHZ-31" value="" style="shape=partialRectangle;collapsible=0;dropTarget=0;pointerEvents=0;fillColor=none;top=0;left=0;bottom=0;right=0;points=[[0,0.5],[1,0.5]];portConstraint=eastwest;" vertex="1" parent="Fuiwj4I0-OSdqCqPlvHZ-27">
                    <mxGeometry y="60" width="180" height="30" as="geometry"/>
                </mxCell>
                <mxCell id="Fuiwj4I0-OSdqCqPlvHZ-32" value="String" style="shape=partialRectangle;connectable=0;fillColor=none;top=0;left=0;bottom=0;right=0;editable=1;overflow=hidden;" vertex="1" parent="Fuiwj4I0-OSdqCqPlvHZ-31">
                    <mxGeometry width="71" height="30" as="geometry">
                        <mxRectangle width="71" height="30" as="alternateBounds"/>
                    </mxGeometry>
                </mxCell>
                <mxCell id="Fuiwj4I0-OSdqCqPlvHZ-33" value="title" style="shape=partialRectangle;connectable=0;fillColor=none;top=0;left=0;bottom=0;right=0;align=left;spacingLeft=6;overflow=hidden;strokeColor=#FF0000;" vertex="1" parent="Fuiwj4I0-OSdqCqPlvHZ-31">
                    <mxGeometry x="71" width="109" height="30" as="geometry">
                        <mxRectangle width="109" height="30" as="alternateBounds"/>
                    </mxGeometry>
                </mxCell>
                <mxCell id="Fuiwj4I0-OSdqCqPlvHZ-34" value="" style="shape=partialRectangle;collapsible=0;dropTarget=0;pointerEvents=0;fillColor=none;top=0;left=0;bottom=0;right=0;points=[[0,0.5],[1,0.5]];portConstraint=eastwest;" vertex="1" parent="Fuiwj4I0-OSdqCqPlvHZ-27">
                    <mxGeometry y="90" width="180" height="30" as="geometry"/>
                </mxCell>
                <mxCell id="Fuiwj4I0-OSdqCqPlvHZ-35" value="String" style="shape=partialRectangle;connectable=0;fillColor=none;top=0;left=0;bottom=0;right=0;editable=1;overflow=hidden;" vertex="1" parent="Fuiwj4I0-OSdqCqPlvHZ-34">
                    <mxGeometry width="71" height="30" as="geometry">
                        <mxRectangle width="71" height="30" as="alternateBounds"/>
                    </mxGeometry>
                </mxCell>
                <mxCell id="Fuiwj4I0-OSdqCqPlvHZ-36" value="content" style="shape=partialRectangle;connectable=0;fillColor=none;top=0;left=0;bottom=0;right=0;align=left;spacingLeft=6;overflow=hidden;" vertex="1" parent="Fuiwj4I0-OSdqCqPlvHZ-34">
                    <mxGeometry x="71" width="109" height="30" as="geometry">
                        <mxRectangle width="109" height="30" as="alternateBounds"/>
                    </mxGeometry>
                </mxCell>
                <mxCell id="Fuiwj4I0-OSdqCqPlvHZ-37" value="" style="shape=partialRectangle;collapsible=0;dropTarget=0;pointerEvents=0;fillColor=none;top=0;left=0;bottom=0;right=0;points=[[0,0.5],[1,0.5]];portConstraint=eastwest;" vertex="1" parent="Fuiwj4I0-OSdqCqPlvHZ-27">
                    <mxGeometry y="120" width="180" height="30" as="geometry"/>
                </mxCell>
                <mxCell id="Fuiwj4I0-OSdqCqPlvHZ-38" value="List" style="shape=partialRectangle;connectable=0;fillColor=none;top=0;left=0;bottom=0;right=0;editable=1;overflow=hidden;" vertex="1" parent="Fuiwj4I0-OSdqCqPlvHZ-37">
                    <mxGeometry width="71" height="30" as="geometry">
                        <mxRectangle width="71" height="30" as="alternateBounds"/>
                    </mxGeometry>
                </mxCell>
                <mxCell id="Fuiwj4I0-OSdqCqPlvHZ-39" value="tags" style="shape=partialRectangle;connectable=0;fillColor=none;top=0;left=0;bottom=0;right=0;align=left;spacingLeft=6;overflow=hidden;" vertex="1" parent="Fuiwj4I0-OSdqCqPlvHZ-37">
                    <mxGeometry x="71" width="109" height="30" as="geometry">
                        <mxRectangle width="109" height="30" as="alternateBounds"/>
                    </mxGeometry>
                </mxCell>
                <mxCell id="Fuiwj4I0-OSdqCqPlvHZ-40" value="tags" style="shape=table;startSize=30;container=1;collapsible=1;childLayout=tableLayout;fixedRows=1;rowLines=0;fontStyle=1;align=center;resizeLast=1;" vertex="1" parent="Fuiwj4I0-OSdqCqPlvHZ-26">
                    <mxGeometry x="70" y="270" width="180" height="70" as="geometry"/>
                </mxCell>
                <mxCell id="Fuiwj4I0-OSdqCqPlvHZ-41" value="" style="shape=partialRectangle;collapsible=0;dropTarget=0;pointerEvents=0;fillColor=none;top=0;left=0;bottom=0;right=0;points=[[0,0.5],[1,0.5]];portConstraint=eastwest;" vertex="1" parent="Fuiwj4I0-OSdqCqPlvHZ-40">
                    <mxGeometry y="30" width="180" height="30" as="geometry"/>
                </mxCell>
                <mxCell id="Fuiwj4I0-OSdqCqPlvHZ-42" value="String" style="shape=partialRectangle;connectable=0;fillColor=none;top=0;left=0;bottom=0;right=0;editable=1;overflow=hidden;" vertex="1" parent="Fuiwj4I0-OSdqCqPlvHZ-41">
                    <mxGeometry width="71" height="30" as="geometry">
                        <mxRectangle width="71" height="30" as="alternateBounds"/>
                    </mxGeometry>
                </mxCell>
                <mxCell id="Fuiwj4I0-OSdqCqPlvHZ-43" value="tag" style="shape=partialRectangle;connectable=0;fillColor=none;top=0;left=0;bottom=0;right=0;align=left;spacingLeft=6;overflow=hidden;" vertex="1" parent="Fuiwj4I0-OSdqCqPlvHZ-41">
                    <mxGeometry x="71" width="109" height="30" as="geometry">
                        <mxRectangle width="109" height="30" as="alternateBounds"/>
                    </mxGeometry>
                </mxCell>
                <mxCell id="Fuiwj4I0-OSdqCqPlvHZ-44" value="" style="edgeStyle=entityRelationEdgeStyle;fontSize=12;html=1;endArrow=ERoneToMany;" edge="1" parent="Fuiwj4I0-OSdqCqPlvHZ-26" source="Fuiwj4I0-OSdqCqPlvHZ-40" target="Fuiwj4I0-OSdqCqPlvHZ-37">
                    <mxGeometry width="100" height="100" relative="1" as="geometry">
                        <mxPoint x="480" y="290" as="sourcePoint"/>
                        <mxPoint x="580" y="190" as="targetPoint"/>
                    </mxGeometry>
                </mxCell>
                <mxCell id="Fuiwj4I0-OSdqCqPlvHZ-45" value="Back" style="swimlane;" vertex="1" parent="66ce57i5j5F7sD7WschZ-1">
                    <mxGeometry x="509" y="570" width="240" height="320" as="geometry"/>
                </mxCell>
                <mxCell id="Fuiwj4I0-OSdqCqPlvHZ-46" value="data" style="shape=table;startSize=30;container=1;collapsible=1;childLayout=tableLayout;fixedRows=1;rowLines=0;fontStyle=1;align=center;resizeLast=1;" vertex="1" parent="Fuiwj4I0-OSdqCqPlvHZ-45">
                    <mxGeometry x="30" y="105" width="180" height="70" as="geometry"/>
                </mxCell>
                <mxCell id="Fuiwj4I0-OSdqCqPlvHZ-47" value="" style="shape=partialRectangle;collapsible=0;dropTarget=0;pointerEvents=0;fillColor=none;top=0;left=0;bottom=0;right=0;points=[[0,0.5],[1,0.5]];portConstraint=eastwest;" vertex="1" parent="Fuiwj4I0-OSdqCqPlvHZ-46">
                    <mxGeometry y="30" width="180" height="30" as="geometry"/>
                </mxCell>
                <mxCell id="Fuiwj4I0-OSdqCqPlvHZ-48" value="status" style="shape=partialRectangle;connectable=0;fillColor=none;top=0;left=0;bottom=0;right=0;editable=1;overflow=hidden;" vertex="1" parent="Fuiwj4I0-OSdqCqPlvHZ-47">
                    <mxGeometry width="80" height="30" as="geometry">
                        <mxRectangle width="80" height="30" as="alternateBounds"/>
                    </mxGeometry>
                </mxCell>
                <mxCell id="Fuiwj4I0-OSdqCqPlvHZ-49" value="success / error" style="shape=partialRectangle;connectable=0;fillColor=none;top=0;left=0;bottom=0;right=0;align=left;spacingLeft=6;overflow=hidden;" vertex="1" parent="Fuiwj4I0-OSdqCqPlvHZ-47">
                    <mxGeometry x="80" width="100" height="30" as="geometry">
                        <mxRectangle width="100" height="30" as="alternateBounds"/>
                    </mxGeometry>
                </mxCell>
                <mxCell id="Fuiwj4I0-OSdqCqPlvHZ-50" value="&lt;font style=&quot;font-size: 14px&quot;&gt;article / save&lt;br&gt;&lt;/font&gt;" style="endArrow=open;endSize=12;dashed=1;html=1;" edge="1" parent="66ce57i5j5F7sD7WschZ-1" source="Fuiwj4I0-OSdqCqPlvHZ-27" target="Fuiwj4I0-OSdqCqPlvHZ-46">
                    <mxGeometry width="160" relative="1" as="geometry">
                        <mxPoint x="249" y="680" as="sourcePoint"/>
                        <mxPoint x="459" y="655" as="targetPoint"/>
                    </mxGeometry>
                </mxCell>
                <mxCell id="Fuiwj4I0-OSdqCqPlvHZ-51" value="Front" style="swimlane;" vertex="1" parent="66ce57i5j5F7sD7WschZ-1">
                    <mxGeometry x="79" y="1800" width="320" height="380" as="geometry"/>
                </mxCell>
                <mxCell id="Fuiwj4I0-OSdqCqPlvHZ-52" value="Post" style="shape=table;startSize=30;container=1;collapsible=1;childLayout=tableLayout;fixedRows=1;rowLines=0;fontStyle=1;align=center;resizeLast=1;" vertex="1" parent="Fuiwj4I0-OSdqCqPlvHZ-51">
                    <mxGeometry x="70" y="60" width="180" height="190" as="geometry"/>
                </mxCell>
                <mxCell id="Fuiwj4I0-OSdqCqPlvHZ-53" value="" style="shape=partialRectangle;collapsible=0;dropTarget=0;pointerEvents=0;fillColor=none;top=0;left=0;bottom=0;right=0;points=[[0,0.5],[1,0.5]];portConstraint=eastwest;strokeColor=#FF0000;" vertex="1" parent="Fuiwj4I0-OSdqCqPlvHZ-52">
                    <mxGeometry y="30" width="180" height="30" as="geometry"/>
                </mxCell>
                <mxCell id="Fuiwj4I0-OSdqCqPlvHZ-54" value="Integer" style="shape=partialRectangle;connectable=0;fillColor=none;top=0;left=0;bottom=0;right=0;editable=1;overflow=hidden;" vertex="1" parent="Fuiwj4I0-OSdqCqPlvHZ-53">
                    <mxGeometry width="71" height="30" as="geometry">
                        <mxRectangle width="71" height="30" as="alternateBounds"/>
                    </mxGeometry>
                </mxCell>
                <mxCell id="Fuiwj4I0-OSdqCqPlvHZ-55" value="userInfoId" style="shape=partialRectangle;connectable=0;fillColor=none;top=0;left=0;bottom=0;right=0;align=left;spacingLeft=6;overflow=hidden;" vertex="1" parent="Fuiwj4I0-OSdqCqPlvHZ-53">
                    <mxGeometry x="71" width="109" height="30" as="geometry">
                        <mxRectangle width="109" height="30" as="alternateBounds"/>
                    </mxGeometry>
                </mxCell>
                <mxCell id="Fuiwj4I0-OSdqCqPlvHZ-56" value="" style="shape=partialRectangle;collapsible=0;dropTarget=0;pointerEvents=0;fillColor=none;top=0;left=0;bottom=0;right=0;points=[[0,0.5],[1,0.5]];portConstraint=eastwest;" vertex="1" parent="Fuiwj4I0-OSdqCqPlvHZ-52">
                    <mxGeometry y="60" width="180" height="30" as="geometry"/>
                </mxCell>
                <mxCell id="Fuiwj4I0-OSdqCqPlvHZ-57" value="String" style="shape=partialRectangle;connectable=0;fillColor=none;top=0;left=0;bottom=0;right=0;editable=1;overflow=hidden;" vertex="1" parent="Fuiwj4I0-OSdqCqPlvHZ-56">
                    <mxGeometry width="71" height="30" as="geometry">
                        <mxRectangle width="71" height="30" as="alternateBounds"/>
                    </mxGeometry>
                </mxCell>
                <mxCell id="Fuiwj4I0-OSdqCqPlvHZ-58" value="title" style="shape=partialRectangle;connectable=0;fillColor=none;top=0;left=0;bottom=0;right=0;align=left;spacingLeft=6;overflow=hidden;strokeColor=#FF0000;" vertex="1" parent="Fuiwj4I0-OSdqCqPlvHZ-56">
                    <mxGeometry x="71" width="109" height="30" as="geometry">
                        <mxRectangle width="109" height="30" as="alternateBounds"/>
                    </mxGeometry>
                </mxCell>
                <mxCell id="Fuiwj4I0-OSdqCqPlvHZ-59" value="" style="shape=partialRectangle;collapsible=0;dropTarget=0;pointerEvents=0;fillColor=none;top=0;left=0;bottom=0;right=0;points=[[0,0.5],[1,0.5]];portConstraint=eastwest;" vertex="1" parent="Fuiwj4I0-OSdqCqPlvHZ-52">
                    <mxGeometry y="90" width="180" height="30" as="geometry"/>
                </mxCell>
                <mxCell id="Fuiwj4I0-OSdqCqPlvHZ-60" value="String" style="shape=partialRectangle;connectable=0;fillColor=none;top=0;left=0;bottom=0;right=0;editable=1;overflow=hidden;" vertex="1" parent="Fuiwj4I0-OSdqCqPlvHZ-59">
                    <mxGeometry width="71" height="30" as="geometry">
                        <mxRectangle width="71" height="30" as="alternateBounds"/>
                    </mxGeometry>
                </mxCell>
                <mxCell id="Fuiwj4I0-OSdqCqPlvHZ-61" value="content" style="shape=partialRectangle;connectable=0;fillColor=none;top=0;left=0;bottom=0;right=0;align=left;spacingLeft=6;overflow=hidden;" vertex="1" parent="Fuiwj4I0-OSdqCqPlvHZ-59">
                    <mxGeometry x="71" width="109" height="30" as="geometry">
                        <mxRectangle width="109" height="30" as="alternateBounds"/>
                    </mxGeometry>
                </mxCell>
                <mxCell id="Fuiwj4I0-OSdqCqPlvHZ-62" value="" style="shape=partialRectangle;collapsible=0;dropTarget=0;pointerEvents=0;fillColor=none;top=0;left=0;bottom=0;right=0;points=[[0,0.5],[1,0.5]];portConstraint=eastwest;" vertex="1" parent="Fuiwj4I0-OSdqCqPlvHZ-52">
                    <mxGeometry y="120" width="180" height="30" as="geometry"/>
                </mxCell>
                <mxCell id="Fuiwj4I0-OSdqCqPlvHZ-63" value="List" style="shape=partialRectangle;connectable=0;fillColor=none;top=0;left=0;bottom=0;right=0;editable=1;overflow=hidden;" vertex="1" parent="Fuiwj4I0-OSdqCqPlvHZ-62">
                    <mxGeometry width="71" height="30" as="geometry">
                        <mxRectangle width="71" height="30" as="alternateBounds"/>
                    </mxGeometry>
                </mxCell>
                <mxCell id="Fuiwj4I0-OSdqCqPlvHZ-64" value="tags" style="shape=partialRectangle;connectable=0;fillColor=none;top=0;left=0;bottom=0;right=0;align=left;spacingLeft=6;overflow=hidden;" vertex="1" parent="Fuiwj4I0-OSdqCqPlvHZ-62">
                    <mxGeometry x="71" width="109" height="30" as="geometry">
                        <mxRectangle width="109" height="30" as="alternateBounds"/>
                    </mxGeometry>
                </mxCell>
                <mxCell id="Fuiwj4I0-OSdqCqPlvHZ-65" value="" style="shape=partialRectangle;collapsible=0;dropTarget=0;pointerEvents=0;fillColor=#990000;top=0;left=0;bottom=0;right=0;points=[[0,0.5],[1,0.5]];portConstraint=eastwest;" vertex="1" parent="Fuiwj4I0-OSdqCqPlvHZ-52">
                    <mxGeometry y="150" width="180" height="30" as="geometry"/>
                </mxCell>
                <mxCell id="Fuiwj4I0-OSdqCqPlvHZ-66" value="Integer" style="shape=partialRectangle;connectable=0;fillColor=none;top=0;left=0;bottom=0;right=0;editable=1;overflow=hidden;" vertex="1" parent="Fuiwj4I0-OSdqCqPlvHZ-65">
                    <mxGeometry width="71" height="30" as="geometry">
                        <mxRectangle width="71" height="30" as="alternateBounds"/>
                    </mxGeometry>
                </mxCell>
                <mxCell id="Fuiwj4I0-OSdqCqPlvHZ-67" value="articleId" style="shape=partialRectangle;connectable=0;fillColor=none;top=0;left=0;bottom=0;right=0;align=left;spacingLeft=6;overflow=hidden;" vertex="1" parent="Fuiwj4I0-OSdqCqPlvHZ-65">
                    <mxGeometry x="71" width="109" height="30" as="geometry">
                        <mxRectangle width="109" height="30" as="alternateBounds"/>
                    </mxGeometry>
                </mxCell>
                <mxCell id="Fuiwj4I0-OSdqCqPlvHZ-68" value="tags" style="shape=table;startSize=30;container=1;collapsible=1;childLayout=tableLayout;fixedRows=1;rowLines=0;fontStyle=1;align=center;resizeLast=1;" vertex="1" parent="Fuiwj4I0-OSdqCqPlvHZ-51">
                    <mxGeometry x="70" y="270" width="180" height="70" as="geometry"/>
                </mxCell>
                <mxCell id="Fuiwj4I0-OSdqCqPlvHZ-69" value="" style="shape=partialRectangle;collapsible=0;dropTarget=0;pointerEvents=0;fillColor=none;top=0;left=0;bottom=0;right=0;points=[[0,0.5],[1,0.5]];portConstraint=eastwest;" vertex="1" parent="Fuiwj4I0-OSdqCqPlvHZ-68">
                    <mxGeometry y="30" width="180" height="30" as="geometry"/>
                </mxCell>
                <mxCell id="Fuiwj4I0-OSdqCqPlvHZ-70" value="String" style="shape=partialRectangle;connectable=0;fillColor=none;top=0;left=0;bottom=0;right=0;editable=1;overflow=hidden;" vertex="1" parent="Fuiwj4I0-OSdqCqPlvHZ-69">
                    <mxGeometry width="71" height="30" as="geometry">
                        <mxRectangle width="71" height="30" as="alternateBounds"/>
                    </mxGeometry>
                </mxCell>
                <mxCell id="Fuiwj4I0-OSdqCqPlvHZ-71" value="tag" style="shape=partialRectangle;connectable=0;fillColor=none;top=0;left=0;bottom=0;right=0;align=left;spacingLeft=6;overflow=hidden;" vertex="1" parent="Fuiwj4I0-OSdqCqPlvHZ-69">
                    <mxGeometry x="71" width="109" height="30" as="geometry">
                        <mxRectangle width="109" height="30" as="alternateBounds"/>
                    </mxGeometry>
                </mxCell>
                <mxCell id="Fuiwj4I0-OSdqCqPlvHZ-72" value="" style="edgeStyle=entityRelationEdgeStyle;fontSize=12;html=1;endArrow=ERoneToMany;" edge="1" parent="Fuiwj4I0-OSdqCqPlvHZ-51" source="Fuiwj4I0-OSdqCqPlvHZ-68" target="Fuiwj4I0-OSdqCqPlvHZ-62">
                    <mxGeometry width="100" height="100" relative="1" as="geometry">
                        <mxPoint x="480" y="290" as="sourcePoint"/>
                        <mxPoint x="580" y="190" as="targetPoint"/>
                    </mxGeometry>
                </mxCell>
                <mxCell id="Fuiwj4I0-OSdqCqPlvHZ-73" value="Back" style="swimlane;" vertex="1" parent="66ce57i5j5F7sD7WschZ-1">
                    <mxGeometry x="509" y="1800" width="240" height="320" as="geometry"/>
                </mxCell>
                <mxCell id="Fuiwj4I0-OSdqCqPlvHZ-74" value="data" style="shape=table;startSize=30;container=1;collapsible=1;childLayout=tableLayout;fixedRows=1;rowLines=0;fontStyle=1;align=center;resizeLast=1;" vertex="1" parent="Fuiwj4I0-OSdqCqPlvHZ-73">
                    <mxGeometry x="30" y="120" width="180" height="70" as="geometry"/>
                </mxCell>
                <mxCell id="Fuiwj4I0-OSdqCqPlvHZ-75" value="" style="shape=partialRectangle;collapsible=0;dropTarget=0;pointerEvents=0;fillColor=none;top=0;left=0;bottom=0;right=0;points=[[0,0.5],[1,0.5]];portConstraint=eastwest;" vertex="1" parent="Fuiwj4I0-OSdqCqPlvHZ-74">
                    <mxGeometry y="30" width="180" height="30" as="geometry"/>
                </mxCell>
                <mxCell id="Fuiwj4I0-OSdqCqPlvHZ-76" value="status" style="shape=partialRectangle;connectable=0;fillColor=none;top=0;left=0;bottom=0;right=0;editable=1;overflow=hidden;" vertex="1" parent="Fuiwj4I0-OSdqCqPlvHZ-75">
                    <mxGeometry width="80" height="30" as="geometry">
                        <mxRectangle width="80" height="30" as="alternateBounds"/>
                    </mxGeometry>
                </mxCell>
                <mxCell id="Fuiwj4I0-OSdqCqPlvHZ-77" value="success / error" style="shape=partialRectangle;connectable=0;fillColor=none;top=0;left=0;bottom=0;right=0;align=left;spacingLeft=6;overflow=hidden;" vertex="1" parent="Fuiwj4I0-OSdqCqPlvHZ-75">
                    <mxGeometry x="80" width="100" height="30" as="geometry">
                        <mxRectangle width="100" height="30" as="alternateBounds"/>
                    </mxGeometry>
                </mxCell>
                <mxCell id="Fuiwj4I0-OSdqCqPlvHZ-78" value="&lt;font style=&quot;font-size: 14px&quot;&gt;article / save&lt;br&gt;&lt;/font&gt;" style="endArrow=open;endSize=12;dashed=1;html=1;" edge="1" parent="66ce57i5j5F7sD7WschZ-1" source="Fuiwj4I0-OSdqCqPlvHZ-52" target="Fuiwj4I0-OSdqCqPlvHZ-74">
                    <mxGeometry width="160" relative="1" as="geometry">
                        <mxPoint x="278" y="780" as="sourcePoint"/>
                        <mxPoint x="488" y="755" as="targetPoint"/>
                    </mxGeometry>
                </mxCell>
                <mxCell id="Fuiwj4I0-OSdqCqPlvHZ-79" value="Front" style="swimlane;" vertex="1" parent="66ce57i5j5F7sD7WschZ-1">
                    <mxGeometry x="79" y="1250" width="320" height="380" as="geometry"/>
                </mxCell>
                <mxCell id="Fuiwj4I0-OSdqCqPlvHZ-80" value="Post" style="shape=table;startSize=30;container=1;collapsible=1;childLayout=tableLayout;fixedRows=1;rowLines=0;fontStyle=1;align=center;resizeLast=1;" vertex="1" parent="Fuiwj4I0-OSdqCqPlvHZ-79">
                    <mxGeometry x="70" y="60" width="180" height="190" as="geometry"/>
                </mxCell>
                <mxCell id="Fuiwj4I0-OSdqCqPlvHZ-81" value="" style="shape=partialRectangle;collapsible=0;dropTarget=0;pointerEvents=0;fillColor=none;top=0;left=0;bottom=0;right=0;points=[[0,0.5],[1,0.5]];portConstraint=eastwest;strokeColor=#FF0000;" vertex="1" parent="Fuiwj4I0-OSdqCqPlvHZ-80">
                    <mxGeometry y="30" width="180" height="30" as="geometry"/>
                </mxCell>
                <mxCell id="Fuiwj4I0-OSdqCqPlvHZ-82" value="Integer" style="shape=partialRectangle;connectable=0;fillColor=none;top=0;left=0;bottom=0;right=0;editable=1;overflow=hidden;" vertex="1" parent="Fuiwj4I0-OSdqCqPlvHZ-81">
                    <mxGeometry width="71" height="30" as="geometry">
                        <mxRectangle width="71" height="30" as="alternateBounds"/>
                    </mxGeometry>
                </mxCell>
                <mxCell id="Fuiwj4I0-OSdqCqPlvHZ-83" value="userInfoId" style="shape=partialRectangle;connectable=0;fillColor=none;top=0;left=0;bottom=0;right=0;align=left;spacingLeft=6;overflow=hidden;" vertex="1" parent="Fuiwj4I0-OSdqCqPlvHZ-81">
                    <mxGeometry x="71" width="109" height="30" as="geometry">
                        <mxRectangle width="109" height="30" as="alternateBounds"/>
                    </mxGeometry>
                </mxCell>
                <mxCell id="Fuiwj4I0-OSdqCqPlvHZ-84" value="" style="shape=partialRectangle;collapsible=0;dropTarget=0;pointerEvents=0;fillColor=none;top=0;left=0;bottom=0;right=0;points=[[0,0.5],[1,0.5]];portConstraint=eastwest;" vertex="1" parent="Fuiwj4I0-OSdqCqPlvHZ-80">
                    <mxGeometry y="60" width="180" height="30" as="geometry"/>
                </mxCell>
                <mxCell id="Fuiwj4I0-OSdqCqPlvHZ-85" value="String" style="shape=partialRectangle;connectable=0;fillColor=none;top=0;left=0;bottom=0;right=0;editable=1;overflow=hidden;" vertex="1" parent="Fuiwj4I0-OSdqCqPlvHZ-84">
                    <mxGeometry width="71" height="30" as="geometry">
                        <mxRectangle width="71" height="30" as="alternateBounds"/>
                    </mxGeometry>
                </mxCell>
                <mxCell id="Fuiwj4I0-OSdqCqPlvHZ-86" value="title" style="shape=partialRectangle;connectable=0;fillColor=none;top=0;left=0;bottom=0;right=0;align=left;spacingLeft=6;overflow=hidden;strokeColor=#FF0000;" vertex="1" parent="Fuiwj4I0-OSdqCqPlvHZ-84">
                    <mxGeometry x="71" width="109" height="30" as="geometry">
                        <mxRectangle width="109" height="30" as="alternateBounds"/>
                    </mxGeometry>
                </mxCell>
                <mxCell id="Fuiwj4I0-OSdqCqPlvHZ-87" value="" style="shape=partialRectangle;collapsible=0;dropTarget=0;pointerEvents=0;fillColor=none;top=0;left=0;bottom=0;right=0;points=[[0,0.5],[1,0.5]];portConstraint=eastwest;" vertex="1" parent="Fuiwj4I0-OSdqCqPlvHZ-80">
                    <mxGeometry y="90" width="180" height="30" as="geometry"/>
                </mxCell>
                <mxCell id="Fuiwj4I0-OSdqCqPlvHZ-88" value="String" style="shape=partialRectangle;connectable=0;fillColor=none;top=0;left=0;bottom=0;right=0;editable=1;overflow=hidden;" vertex="1" parent="Fuiwj4I0-OSdqCqPlvHZ-87">
                    <mxGeometry width="71" height="30" as="geometry">
                        <mxRectangle width="71" height="30" as="alternateBounds"/>
                    </mxGeometry>
                </mxCell>
                <mxCell id="Fuiwj4I0-OSdqCqPlvHZ-89" value="content" style="shape=partialRectangle;connectable=0;fillColor=none;top=0;left=0;bottom=0;right=0;align=left;spacingLeft=6;overflow=hidden;" vertex="1" parent="Fuiwj4I0-OSdqCqPlvHZ-87">
                    <mxGeometry x="71" width="109" height="30" as="geometry">
                        <mxRectangle width="109" height="30" as="alternateBounds"/>
                    </mxGeometry>
                </mxCell>
                <mxCell id="Fuiwj4I0-OSdqCqPlvHZ-90" value="" style="shape=partialRectangle;collapsible=0;dropTarget=0;pointerEvents=0;fillColor=none;top=0;left=0;bottom=0;right=0;points=[[0,0.5],[1,0.5]];portConstraint=eastwest;" vertex="1" parent="Fuiwj4I0-OSdqCqPlvHZ-80">
                    <mxGeometry y="120" width="180" height="30" as="geometry"/>
                </mxCell>
                <mxCell id="Fuiwj4I0-OSdqCqPlvHZ-91" value="List" style="shape=partialRectangle;connectable=0;fillColor=none;top=0;left=0;bottom=0;right=0;editable=1;overflow=hidden;" vertex="1" parent="Fuiwj4I0-OSdqCqPlvHZ-90">
                    <mxGeometry width="71" height="30" as="geometry">
                        <mxRectangle width="71" height="30" as="alternateBounds"/>
                    </mxGeometry>
                </mxCell>
                <mxCell id="Fuiwj4I0-OSdqCqPlvHZ-92" value="tags" style="shape=partialRectangle;connectable=0;fillColor=none;top=0;left=0;bottom=0;right=0;align=left;spacingLeft=6;overflow=hidden;" vertex="1" parent="Fuiwj4I0-OSdqCqPlvHZ-90">
                    <mxGeometry x="71" width="109" height="30" as="geometry">
                        <mxRectangle width="109" height="30" as="alternateBounds"/>
                    </mxGeometry>
                </mxCell>
                <mxCell id="Fuiwj4I0-OSdqCqPlvHZ-93" value="" style="shape=partialRectangle;collapsible=0;dropTarget=0;pointerEvents=0;fillColor=#990000;top=0;left=0;bottom=0;right=0;points=[[0,0.5],[1,0.5]];portConstraint=eastwest;shadow=0;" vertex="1" parent="Fuiwj4I0-OSdqCqPlvHZ-80">
                    <mxGeometry y="150" width="180" height="30" as="geometry"/>
                </mxCell>
                <mxCell id="Fuiwj4I0-OSdqCqPlvHZ-94" value="Integer" style="shape=partialRectangle;connectable=0;fillColor=none;top=0;left=0;bottom=0;right=0;editable=1;overflow=hidden;" vertex="1" parent="Fuiwj4I0-OSdqCqPlvHZ-93">
                    <mxGeometry width="71" height="30" as="geometry">
                        <mxRectangle width="71" height="30" as="alternateBounds"/>
                    </mxGeometry>
                </mxCell>
                <mxCell id="Fuiwj4I0-OSdqCqPlvHZ-95" value="articleId" style="shape=partialRectangle;connectable=0;fillColor=none;top=0;left=0;bottom=0;right=0;align=left;spacingLeft=6;overflow=hidden;" vertex="1" parent="Fuiwj4I0-OSdqCqPlvHZ-93">
                    <mxGeometry x="71" width="109" height="30" as="geometry">
                        <mxRectangle width="109" height="30" as="alternateBounds"/>
                    </mxGeometry>
                </mxCell>
                <mxCell id="Fuiwj4I0-OSdqCqPlvHZ-96" value="tags" style="shape=table;startSize=30;container=1;collapsible=1;childLayout=tableLayout;fixedRows=1;rowLines=0;fontStyle=1;align=center;resizeLast=1;" vertex="1" parent="Fuiwj4I0-OSdqCqPlvHZ-79">
                    <mxGeometry x="70" y="270" width="180" height="70" as="geometry"/>
                </mxCell>
                <mxCell id="Fuiwj4I0-OSdqCqPlvHZ-97" value="" style="shape=partialRectangle;collapsible=0;dropTarget=0;pointerEvents=0;fillColor=none;top=0;left=0;bottom=0;right=0;points=[[0,0.5],[1,0.5]];portConstraint=eastwest;" vertex="1" parent="Fuiwj4I0-OSdqCqPlvHZ-96">
                    <mxGeometry y="30" width="180" height="30" as="geometry"/>
                </mxCell>
                <mxCell id="Fuiwj4I0-OSdqCqPlvHZ-98" value="String" style="shape=partialRectangle;connectable=0;fillColor=none;top=0;left=0;bottom=0;right=0;editable=1;overflow=hidden;" vertex="1" parent="Fuiwj4I0-OSdqCqPlvHZ-97">
                    <mxGeometry width="71" height="30" as="geometry">
                        <mxRectangle width="71" height="30" as="alternateBounds"/>
                    </mxGeometry>
                </mxCell>
                <mxCell id="Fuiwj4I0-OSdqCqPlvHZ-99" value="tag" style="shape=partialRectangle;connectable=0;fillColor=none;top=0;left=0;bottom=0;right=0;align=left;spacingLeft=6;overflow=hidden;" vertex="1" parent="Fuiwj4I0-OSdqCqPlvHZ-97">
                    <mxGeometry x="71" width="109" height="30" as="geometry">
                        <mxRectangle width="109" height="30" as="alternateBounds"/>
                    </mxGeometry>
                </mxCell>
                <mxCell id="Fuiwj4I0-OSdqCqPlvHZ-100" value="" style="edgeStyle=entityRelationEdgeStyle;fontSize=12;html=1;endArrow=ERoneToMany;" edge="1" parent="Fuiwj4I0-OSdqCqPlvHZ-79" source="Fuiwj4I0-OSdqCqPlvHZ-96" target="Fuiwj4I0-OSdqCqPlvHZ-90">
                    <mxGeometry width="100" height="100" relative="1" as="geometry">
                        <mxPoint x="480" y="290" as="sourcePoint"/>
                        <mxPoint x="580" y="190" as="targetPoint"/>
                    </mxGeometry>
                </mxCell>
                <mxCell id="Fuiwj4I0-OSdqCqPlvHZ-101" value="Back" style="swimlane;" vertex="1" parent="66ce57i5j5F7sD7WschZ-1">
                    <mxGeometry x="509" y="1250" width="240" height="320" as="geometry"/>
                </mxCell>
                <mxCell id="Fuiwj4I0-OSdqCqPlvHZ-102" value="data" style="shape=table;startSize=30;container=1;collapsible=1;childLayout=tableLayout;fixedRows=1;rowLines=0;fontStyle=1;align=center;resizeLast=1;" vertex="1" parent="Fuiwj4I0-OSdqCqPlvHZ-101">
                    <mxGeometry x="30" y="120" width="180" height="70" as="geometry"/>
                </mxCell>
                <mxCell id="Fuiwj4I0-OSdqCqPlvHZ-103" value="" style="shape=partialRectangle;collapsible=0;dropTarget=0;pointerEvents=0;fillColor=none;top=0;left=0;bottom=0;right=0;points=[[0,0.5],[1,0.5]];portConstraint=eastwest;" vertex="1" parent="Fuiwj4I0-OSdqCqPlvHZ-102">
                    <mxGeometry y="30" width="180" height="30" as="geometry"/>
                </mxCell>
                <mxCell id="Fuiwj4I0-OSdqCqPlvHZ-104" value="status" style="shape=partialRectangle;connectable=0;fillColor=none;top=0;left=0;bottom=0;right=0;editable=1;overflow=hidden;" vertex="1" parent="Fuiwj4I0-OSdqCqPlvHZ-103">
                    <mxGeometry width="80" height="30" as="geometry">
                        <mxRectangle width="80" height="30" as="alternateBounds"/>
                    </mxGeometry>
                </mxCell>
                <mxCell id="Fuiwj4I0-OSdqCqPlvHZ-105" value="success / error" style="shape=partialRectangle;connectable=0;fillColor=none;top=0;left=0;bottom=0;right=0;align=left;spacingLeft=6;overflow=hidden;" vertex="1" parent="Fuiwj4I0-OSdqCqPlvHZ-103">
                    <mxGeometry x="80" width="100" height="30" as="geometry">
                        <mxRectangle width="100" height="30" as="alternateBounds"/>
                    </mxGeometry>
                </mxCell>
                <mxCell id="Fuiwj4I0-OSdqCqPlvHZ-106" value="&lt;font style=&quot;font-size: 14px&quot;&gt;article / add&amp;nbsp;&lt;br&gt;&lt;/font&gt;" style="endArrow=open;endSize=12;dashed=1;html=1;" edge="1" parent="66ce57i5j5F7sD7WschZ-1" source="Fuiwj4I0-OSdqCqPlvHZ-80" target="Fuiwj4I0-OSdqCqPlvHZ-102">
                    <mxGeometry width="160" relative="1" as="geometry">
                        <mxPoint x="249" y="1360" as="sourcePoint"/>
                        <mxPoint x="459" y="1335" as="targetPoint"/>
                    </mxGeometry>
                </mxCell>
                <mxCell id="Fuiwj4I0-OSdqCqPlvHZ-107" value="&lt;font style=&quot;font-size: 14px&quot;&gt;保存 -&amp;gt; 投稿&lt;/font&gt;" style="rounded=1;whiteSpace=wrap;html=1;" vertex="1" parent="66ce57i5j5F7sD7WschZ-1">
                    <mxGeometry x="79" y="1220" width="110" height="30" as="geometry"/>
                </mxCell>
                <mxCell id="Fuiwj4I0-OSdqCqPlvHZ-108" value="&lt;font style=&quot;font-size: 14px&quot;&gt;新規保存&lt;/font&gt;" style="rounded=1;whiteSpace=wrap;html=1;" vertex="1" parent="66ce57i5j5F7sD7WschZ-1">
                    <mxGeometry x="79" y="540" width="91" height="30" as="geometry"/>
                </mxCell>
                <mxCell id="Fuiwj4I0-OSdqCqPlvHZ-109" value="&lt;font style=&quot;font-size: 14px&quot;&gt;保存 -&amp;gt; 保存&lt;/font&gt;" style="rounded=1;whiteSpace=wrap;html=1;" vertex="1" parent="66ce57i5j5F7sD7WschZ-1">
                    <mxGeometry x="79" y="1770" width="110" height="30" as="geometry"/>
                </mxCell>
                <mxCell id="Fuiwj4I0-OSdqCqPlvHZ-110" value="保存したらArticlesテーブルに登録される（ステータスが未投稿で）ためarticleIdが採番されています" style="rounded=1;whiteSpace=wrap;html=1;strokeColor=#F0F0F0;" vertex="1" parent="66ce57i5j5F7sD7WschZ-1">
                    <mxGeometry x="443" y="1640" width="306" height="80" as="geometry"/>
                </mxCell>
            </root>
        </mxGraphModel>
    </diagram>
    <diagram id="Rj41hKACaU-m_R3mh0Qm" name="コメント">
        <mxGraphModel dx="1400" dy="406" grid="1" gridSize="10" guides="1" tooltips="1" connect="1" arrows="1" fold="1" page="1" pageScale="1" pageWidth="827" pageHeight="1169" math="0" shadow="0">
            <root>
                <mxCell id="RZY6paaCTFPg6hgtUCAI-0"/>
                <mxCell id="RZY6paaCTFPg6hgtUCAI-1" parent="RZY6paaCTFPg6hgtUCAI-0"/>
                <mxCell id="1tO5uqiNopVXjLzbd6oR-0" value="Front" style="swimlane;" vertex="1" parent="RZY6paaCTFPg6hgtUCAI-1">
                    <mxGeometry x="54" y="60" width="320" height="320" as="geometry"/>
                </mxCell>
                <mxCell id="1tO5uqiNopVXjLzbd6oR-1" value="Post" style="shape=table;startSize=30;container=1;collapsible=1;childLayout=tableLayout;fixedRows=1;rowLines=0;fontStyle=1;align=center;resizeLast=1;" vertex="1" parent="1tO5uqiNopVXjLzbd6oR-0">
                    <mxGeometry x="70" y="70" width="180" height="130" as="geometry"/>
                </mxCell>
                <mxCell id="1tO5uqiNopVXjLzbd6oR-2" value="" style="shape=partialRectangle;collapsible=0;dropTarget=0;pointerEvents=0;fillColor=none;top=0;left=0;bottom=0;right=0;points=[[0,0.5],[1,0.5]];portConstraint=eastwest;" vertex="1" parent="1tO5uqiNopVXjLzbd6oR-1">
                    <mxGeometry y="30" width="180" height="30" as="geometry"/>
                </mxCell>
                <mxCell id="1tO5uqiNopVXjLzbd6oR-3" value="Integer" style="shape=partialRectangle;connectable=0;fillColor=none;top=0;left=0;bottom=0;right=0;editable=1;overflow=hidden;" vertex="1" parent="1tO5uqiNopVXjLzbd6oR-2">
                    <mxGeometry width="71" height="30" as="geometry">
                        <mxRectangle width="71" height="30" as="alternateBounds"/>
                    </mxGeometry>
                </mxCell>
                <mxCell id="1tO5uqiNopVXjLzbd6oR-4" value="articleId" style="shape=partialRectangle;connectable=0;fillColor=none;top=0;left=0;bottom=0;right=0;align=left;spacingLeft=6;overflow=hidden;" vertex="1" parent="1tO5uqiNopVXjLzbd6oR-2">
                    <mxGeometry x="71" width="109" height="30" as="geometry">
                        <mxRectangle width="109" height="30" as="alternateBounds"/>
                    </mxGeometry>
                </mxCell>
                <mxCell id="1tO5uqiNopVXjLzbd6oR-5" value="" style="shape=partialRectangle;collapsible=0;dropTarget=0;pointerEvents=0;fillColor=none;top=0;left=0;bottom=0;right=0;points=[[0,0.5],[1,0.5]];portConstraint=eastwest;" vertex="1" parent="1tO5uqiNopVXjLzbd6oR-1">
                    <mxGeometry y="60" width="180" height="30" as="geometry"/>
                </mxCell>
                <mxCell id="1tO5uqiNopVXjLzbd6oR-6" value="Integer" style="shape=partialRectangle;connectable=0;fillColor=none;top=0;left=0;bottom=0;right=0;editable=1;overflow=hidden;" vertex="1" parent="1tO5uqiNopVXjLzbd6oR-5">
                    <mxGeometry width="71" height="30" as="geometry">
                        <mxRectangle width="71" height="30" as="alternateBounds"/>
                    </mxGeometry>
                </mxCell>
                <mxCell id="1tO5uqiNopVXjLzbd6oR-7" value="userInfoId" style="shape=partialRectangle;connectable=0;fillColor=none;top=0;left=0;bottom=0;right=0;align=left;spacingLeft=6;overflow=hidden;" vertex="1" parent="1tO5uqiNopVXjLzbd6oR-5">
                    <mxGeometry x="71" width="109" height="30" as="geometry">
                        <mxRectangle width="109" height="30" as="alternateBounds"/>
                    </mxGeometry>
                </mxCell>
                <mxCell id="1tO5uqiNopVXjLzbd6oR-8" value="" style="shape=partialRectangle;collapsible=0;dropTarget=0;pointerEvents=0;fillColor=none;top=0;left=0;bottom=0;right=0;points=[[0,0.5],[1,0.5]];portConstraint=eastwest;" vertex="1" parent="1tO5uqiNopVXjLzbd6oR-1">
                    <mxGeometry y="90" width="180" height="30" as="geometry"/>
                </mxCell>
                <mxCell id="1tO5uqiNopVXjLzbd6oR-9" value="String" style="shape=partialRectangle;connectable=0;fillColor=none;top=0;left=0;bottom=0;right=0;editable=1;overflow=hidden;" vertex="1" parent="1tO5uqiNopVXjLzbd6oR-8">
                    <mxGeometry width="71" height="30" as="geometry">
                        <mxRectangle width="71" height="30" as="alternateBounds"/>
                    </mxGeometry>
                </mxCell>
                <mxCell id="1tO5uqiNopVXjLzbd6oR-10" value="comment" style="shape=partialRectangle;connectable=0;fillColor=none;top=0;left=0;bottom=0;right=0;align=left;spacingLeft=6;overflow=hidden;" vertex="1" parent="1tO5uqiNopVXjLzbd6oR-8">
                    <mxGeometry x="71" width="109" height="30" as="geometry">
                        <mxRectangle width="109" height="30" as="alternateBounds"/>
                    </mxGeometry>
                </mxCell>
                <mxCell id="1tO5uqiNopVXjLzbd6oR-11" value="Back" style="swimlane;" vertex="1" parent="RZY6paaCTFPg6hgtUCAI-1">
                    <mxGeometry x="454" y="60" width="320" height="320" as="geometry"/>
                </mxCell>
                <mxCell id="1tO5uqiNopVXjLzbd6oR-12" value="data" style="shape=table;startSize=30;container=1;collapsible=1;childLayout=tableLayout;fixedRows=1;rowLines=0;fontStyle=1;align=center;resizeLast=1;" vertex="1" parent="1tO5uqiNopVXjLzbd6oR-11">
                    <mxGeometry x="50" y="100" width="220" height="70" as="geometry"/>
                </mxCell>
                <mxCell id="1tO5uqiNopVXjLzbd6oR-13" value="" style="shape=partialRectangle;collapsible=0;dropTarget=0;pointerEvents=0;fillColor=none;top=0;left=0;bottom=0;right=0;points=[[0,0.5],[1,0.5]];portConstraint=eastwest;" vertex="1" parent="1tO5uqiNopVXjLzbd6oR-12">
                    <mxGeometry y="30" width="220" height="30" as="geometry"/>
                </mxCell>
                <mxCell id="1tO5uqiNopVXjLzbd6oR-14" value="status" style="shape=partialRectangle;connectable=0;fillColor=none;top=0;left=0;bottom=0;right=0;editable=1;overflow=hidden;" vertex="1" parent="1tO5uqiNopVXjLzbd6oR-13">
                    <mxGeometry width="80" height="30" as="geometry">
                        <mxRectangle width="80" height="30" as="alternateBounds"/>
                    </mxGeometry>
                </mxCell>
                <mxCell id="1tO5uqiNopVXjLzbd6oR-15" value="success / error" style="shape=partialRectangle;connectable=0;fillColor=none;top=0;left=0;bottom=0;right=0;align=left;spacingLeft=6;overflow=hidden;" vertex="1" parent="1tO5uqiNopVXjLzbd6oR-13">
                    <mxGeometry x="80" width="140" height="30" as="geometry">
                        <mxRectangle width="140" height="30" as="alternateBounds"/>
                    </mxGeometry>
                </mxCell>
                <mxCell id="1tO5uqiNopVXjLzbd6oR-16" value="&lt;font style=&quot;font-size: 14px&quot;&gt;article / comment&lt;/font&gt;" style="endArrow=open;endSize=12;dashed=1;html=1;" edge="1" parent="RZY6paaCTFPg6hgtUCAI-1" source="1tO5uqiNopVXjLzbd6oR-1" target="1tO5uqiNopVXjLzbd6oR-12">
                    <mxGeometry width="160" relative="1" as="geometry">
                        <mxPoint x="310" y="145" as="sourcePoint"/>
                        <mxPoint x="510" y="145" as="targetPoint"/>
                    </mxGeometry>
                </mxCell>
            </root>
        </mxGraphModel>
    </diagram>
    <diagram id="gzYkd1PFm2QLl2tkN_cC" name="コメント削除">
        <mxGraphModel dx="1400" dy="406" grid="1" gridSize="10" guides="1" tooltips="1" connect="1" arrows="1" fold="1" page="1" pageScale="1" pageWidth="827" pageHeight="1169" math="0" shadow="0">
            <root>
                <mxCell id="n5Y8zThrcLdULBzEdFKm-0"/>
                <mxCell id="n5Y8zThrcLdULBzEdFKm-1" parent="n5Y8zThrcLdULBzEdFKm-0"/>
                <mxCell id="n5Y8zThrcLdULBzEdFKm-2" value="Front" style="swimlane;" vertex="1" parent="n5Y8zThrcLdULBzEdFKm-1">
                    <mxGeometry x="40" y="70" width="320" height="240" as="geometry"/>
                </mxCell>
                <mxCell id="n5Y8zThrcLdULBzEdFKm-3" value="Post" style="shape=table;startSize=30;container=1;collapsible=1;childLayout=tableLayout;fixedRows=1;rowLines=0;fontStyle=1;align=center;resizeLast=1;" vertex="1" parent="n5Y8zThrcLdULBzEdFKm-2">
                    <mxGeometry x="70" y="70" width="180" height="100" as="geometry"/>
                </mxCell>
                <mxCell id="n5Y8zThrcLdULBzEdFKm-4" value="" style="shape=partialRectangle;collapsible=0;dropTarget=0;pointerEvents=0;fillColor=none;top=0;left=0;bottom=0;right=0;points=[[0,0.5],[1,0.5]];portConstraint=eastwest;" vertex="1" parent="n5Y8zThrcLdULBzEdFKm-3">
                    <mxGeometry y="30" width="180" height="30" as="geometry"/>
                </mxCell>
                <mxCell id="n5Y8zThrcLdULBzEdFKm-5" value="Integer" style="shape=partialRectangle;connectable=0;fillColor=none;top=0;left=0;bottom=0;right=0;editable=1;overflow=hidden;" vertex="1" parent="n5Y8zThrcLdULBzEdFKm-4">
                    <mxGeometry width="71" height="30" as="geometry">
                        <mxRectangle width="71" height="30" as="alternateBounds"/>
                    </mxGeometry>
                </mxCell>
                <mxCell id="n5Y8zThrcLdULBzEdFKm-6" value="commentId" style="shape=partialRectangle;connectable=0;fillColor=none;top=0;left=0;bottom=0;right=0;align=left;spacingLeft=6;overflow=hidden;" vertex="1" parent="n5Y8zThrcLdULBzEdFKm-4">
                    <mxGeometry x="71" width="109" height="30" as="geometry">
                        <mxRectangle width="109" height="30" as="alternateBounds"/>
                    </mxGeometry>
                </mxCell>
                <mxCell id="n5Y8zThrcLdULBzEdFKm-7" value="" style="shape=partialRectangle;collapsible=0;dropTarget=0;pointerEvents=0;fillColor=none;top=0;left=0;bottom=0;right=0;points=[[0,0.5],[1,0.5]];portConstraint=eastwest;" vertex="1" parent="n5Y8zThrcLdULBzEdFKm-3">
                    <mxGeometry y="60" width="180" height="30" as="geometry"/>
                </mxCell>
                <mxCell id="n5Y8zThrcLdULBzEdFKm-8" value="Integer" style="shape=partialRectangle;connectable=0;fillColor=none;top=0;left=0;bottom=0;right=0;editable=1;overflow=hidden;" vertex="1" parent="n5Y8zThrcLdULBzEdFKm-7">
                    <mxGeometry width="71" height="30" as="geometry">
                        <mxRectangle width="71" height="30" as="alternateBounds"/>
                    </mxGeometry>
                </mxCell>
                <mxCell id="n5Y8zThrcLdULBzEdFKm-9" value="guestId" style="shape=partialRectangle;connectable=0;fillColor=none;top=0;left=0;bottom=0;right=0;align=left;spacingLeft=6;overflow=hidden;" vertex="1" parent="n5Y8zThrcLdULBzEdFKm-7">
                    <mxGeometry x="71" width="109" height="30" as="geometry">
                        <mxRectangle width="109" height="30" as="alternateBounds"/>
                    </mxGeometry>
                </mxCell>
                <mxCell id="n5Y8zThrcLdULBzEdFKm-10" value="Back" style="swimlane;" vertex="1" parent="n5Y8zThrcLdULBzEdFKm-1">
                    <mxGeometry x="440" y="70" width="320" height="240" as="geometry"/>
                </mxCell>
                <mxCell id="n5Y8zThrcLdULBzEdFKm-11" value="data" style="shape=table;startSize=30;container=1;collapsible=1;childLayout=tableLayout;fixedRows=1;rowLines=0;fontStyle=1;align=center;resizeLast=1;" vertex="1" parent="n5Y8zThrcLdULBzEdFKm-10">
                    <mxGeometry x="70" y="80" width="180" height="70" as="geometry"/>
                </mxCell>
                <mxCell id="n5Y8zThrcLdULBzEdFKm-12" value="" style="shape=partialRectangle;collapsible=0;dropTarget=0;pointerEvents=0;fillColor=none;top=0;left=0;bottom=0;right=0;points=[[0,0.5],[1,0.5]];portConstraint=eastwest;" vertex="1" parent="n5Y8zThrcLdULBzEdFKm-11">
                    <mxGeometry y="30" width="180" height="30" as="geometry"/>
                </mxCell>
                <mxCell id="n5Y8zThrcLdULBzEdFKm-13" value="status" style="shape=partialRectangle;connectable=0;fillColor=none;top=0;left=0;bottom=0;right=0;editable=1;overflow=hidden;" vertex="1" parent="n5Y8zThrcLdULBzEdFKm-12">
                    <mxGeometry width="80" height="30" as="geometry">
                        <mxRectangle width="80" height="30" as="alternateBounds"/>
                    </mxGeometry>
                </mxCell>
                <mxCell id="n5Y8zThrcLdULBzEdFKm-14" value="success / error" style="shape=partialRectangle;connectable=0;fillColor=none;top=0;left=0;bottom=0;right=0;align=left;spacingLeft=6;overflow=hidden;" vertex="1" parent="n5Y8zThrcLdULBzEdFKm-12">
                    <mxGeometry x="80" width="100" height="30" as="geometry">
                        <mxRectangle width="100" height="30" as="alternateBounds"/>
                    </mxGeometry>
                </mxCell>
                <mxCell id="n5Y8zThrcLdULBzEdFKm-15" value="&lt;font style=&quot;font-size: 14px&quot;&gt;article / commnetDelete&lt;/font&gt;" style="endArrow=open;endSize=12;dashed=1;html=1;" edge="1" parent="n5Y8zThrcLdULBzEdFKm-1" source="n5Y8zThrcLdULBzEdFKm-3" target="n5Y8zThrcLdULBzEdFKm-11">
                    <mxGeometry width="160" relative="1" as="geometry">
                        <mxPoint x="300" y="180" as="sourcePoint"/>
                        <mxPoint x="510" y="155" as="targetPoint"/>
                    </mxGeometry>
                </mxCell>
                <mxCell id="n5Y8zThrcLdULBzEdFKm-16" value="コメント削除" style="rounded=1;arcSize=10;whiteSpace=wrap;html=1;align=center;fontSize=14;" vertex="1" parent="n5Y8zThrcLdULBzEdFKm-1">
                    <mxGeometry x="40" y="30" width="100" height="40" as="geometry"/>
                </mxCell>
            </root>
        </mxGraphModel>
    </diagram>
    <diagram id="7Fn7v6u7i8HEUdX8As_j" name="コメントLIKE">
        <mxGraphModel dx="1400" dy="406" grid="1" gridSize="10" guides="1" tooltips="1" connect="1" arrows="1" fold="1" page="1" pageScale="1" pageWidth="827" pageHeight="1169" math="0" shadow="0">
            <root>
                <mxCell id="PjnLuy9dRTS5BcuDn4Ve-0"/>
                <mxCell id="PjnLuy9dRTS5BcuDn4Ve-1" parent="PjnLuy9dRTS5BcuDn4Ve-0"/>
                <mxCell id="9KXFdbqg7bl_hJVnsyor-0" value="Front" style="swimlane;" vertex="1" parent="PjnLuy9dRTS5BcuDn4Ve-1">
                    <mxGeometry x="54" y="60" width="320" height="320" as="geometry"/>
                </mxCell>
                <mxCell id="9KXFdbqg7bl_hJVnsyor-1" value="Post" style="shape=table;startSize=30;container=1;collapsible=1;childLayout=tableLayout;fixedRows=1;rowLines=0;fontStyle=1;align=center;resizeLast=1;" vertex="1" parent="9KXFdbqg7bl_hJVnsyor-0">
                    <mxGeometry x="70" y="70" width="180" height="100" as="geometry"/>
                </mxCell>
                <mxCell id="9KXFdbqg7bl_hJVnsyor-2" value="" style="shape=partialRectangle;collapsible=0;dropTarget=0;pointerEvents=0;fillColor=none;top=0;left=0;bottom=0;right=0;points=[[0,0.5],[1,0.5]];portConstraint=eastwest;" vertex="1" parent="9KXFdbqg7bl_hJVnsyor-1">
                    <mxGeometry y="30" width="180" height="30" as="geometry"/>
                </mxCell>
                <mxCell id="9KXFdbqg7bl_hJVnsyor-3" value="Integer" style="shape=partialRectangle;connectable=0;fillColor=none;top=0;left=0;bottom=0;right=0;editable=1;overflow=hidden;" vertex="1" parent="9KXFdbqg7bl_hJVnsyor-2">
                    <mxGeometry width="71" height="30" as="geometry">
                        <mxRectangle width="71" height="30" as="alternateBounds"/>
                    </mxGeometry>
                </mxCell>
                <mxCell id="9KXFdbqg7bl_hJVnsyor-4" value="userInfoId" style="shape=partialRectangle;connectable=0;fillColor=none;top=0;left=0;bottom=0;right=0;align=left;spacingLeft=6;overflow=hidden;" vertex="1" parent="9KXFdbqg7bl_hJVnsyor-2">
                    <mxGeometry x="71" width="109" height="30" as="geometry">
                        <mxRectangle width="109" height="30" as="alternateBounds"/>
                    </mxGeometry>
                </mxCell>
                <mxCell id="9KXFdbqg7bl_hJVnsyor-5" value="" style="shape=partialRectangle;collapsible=0;dropTarget=0;pointerEvents=0;fillColor=none;top=0;left=0;bottom=0;right=0;points=[[0,0.5],[1,0.5]];portConstraint=eastwest;" vertex="1" parent="9KXFdbqg7bl_hJVnsyor-1">
                    <mxGeometry y="60" width="180" height="30" as="geometry"/>
                </mxCell>
                <mxCell id="9KXFdbqg7bl_hJVnsyor-6" value="Integer" style="shape=partialRectangle;connectable=0;fillColor=none;top=0;left=0;bottom=0;right=0;editable=1;overflow=hidden;" vertex="1" parent="9KXFdbqg7bl_hJVnsyor-5">
                    <mxGeometry width="71" height="30" as="geometry">
                        <mxRectangle width="71" height="30" as="alternateBounds"/>
                    </mxGeometry>
                </mxCell>
                <mxCell id="9KXFdbqg7bl_hJVnsyor-7" value="commentId" style="shape=partialRectangle;connectable=0;fillColor=none;top=0;left=0;bottom=0;right=0;align=left;spacingLeft=6;overflow=hidden;" vertex="1" parent="9KXFdbqg7bl_hJVnsyor-5">
                    <mxGeometry x="71" width="109" height="30" as="geometry">
                        <mxRectangle width="109" height="30" as="alternateBounds"/>
                    </mxGeometry>
                </mxCell>
                <mxCell id="9KXFdbqg7bl_hJVnsyor-8" value="Back" style="swimlane;" vertex="1" parent="PjnLuy9dRTS5BcuDn4Ve-1">
                    <mxGeometry x="454" y="60" width="320" height="400" as="geometry"/>
                </mxCell>
                <mxCell id="9KXFdbqg7bl_hJVnsyor-9" value="data" style="shape=table;startSize=30;container=1;collapsible=1;childLayout=tableLayout;fixedRows=1;rowLines=0;fontStyle=1;align=center;resizeLast=1;" vertex="1" parent="9KXFdbqg7bl_hJVnsyor-8">
                    <mxGeometry x="70" y="70" width="180" height="100" as="geometry"/>
                </mxCell>
                <mxCell id="9KXFdbqg7bl_hJVnsyor-10" value="" style="shape=partialRectangle;collapsible=0;dropTarget=0;pointerEvents=0;fillColor=none;top=0;left=0;bottom=0;right=0;points=[[0,0.5],[1,0.5]];portConstraint=eastwest;" vertex="1" parent="9KXFdbqg7bl_hJVnsyor-9">
                    <mxGeometry y="30" width="180" height="30" as="geometry"/>
                </mxCell>
                <mxCell id="9KXFdbqg7bl_hJVnsyor-11" value="status" style="shape=partialRectangle;connectable=0;fillColor=none;top=0;left=0;bottom=0;right=0;editable=1;overflow=hidden;" vertex="1" parent="9KXFdbqg7bl_hJVnsyor-10">
                    <mxGeometry width="80" height="30" as="geometry">
                        <mxRectangle width="80" height="30" as="alternateBounds"/>
                    </mxGeometry>
                </mxCell>
                <mxCell id="9KXFdbqg7bl_hJVnsyor-12" value="success / error" style="shape=partialRectangle;connectable=0;fillColor=none;top=0;left=0;bottom=0;right=0;align=left;spacingLeft=6;overflow=hidden;" vertex="1" parent="9KXFdbqg7bl_hJVnsyor-10">
                    <mxGeometry x="80" width="100" height="30" as="geometry">
                        <mxRectangle width="100" height="30" as="alternateBounds"/>
                    </mxGeometry>
                </mxCell>
                <mxCell id="9KXFdbqg7bl_hJVnsyor-13" value="" style="shape=partialRectangle;collapsible=0;dropTarget=0;pointerEvents=0;fillColor=none;top=0;left=0;bottom=0;right=0;points=[[0,0.5],[1,0.5]];portConstraint=eastwest;" vertex="1" parent="9KXFdbqg7bl_hJVnsyor-9">
                    <mxGeometry y="60" width="180" height="30" as="geometry"/>
                </mxCell>
                <mxCell id="9KXFdbqg7bl_hJVnsyor-14" value="List" style="shape=partialRectangle;connectable=0;fillColor=none;top=0;left=0;bottom=0;right=0;editable=1;overflow=hidden;" vertex="1" parent="9KXFdbqg7bl_hJVnsyor-13">
                    <mxGeometry width="80" height="30" as="geometry">
                        <mxRectangle width="80" height="30" as="alternateBounds"/>
                    </mxGeometry>
                </mxCell>
                <mxCell id="9KXFdbqg7bl_hJVnsyor-15" value="likesUserList" style="shape=partialRectangle;connectable=0;fillColor=none;top=0;left=0;bottom=0;right=0;align=left;spacingLeft=6;overflow=hidden;" vertex="1" parent="9KXFdbqg7bl_hJVnsyor-13">
                    <mxGeometry x="80" width="100" height="30" as="geometry">
                        <mxRectangle width="100" height="30" as="alternateBounds"/>
                    </mxGeometry>
                </mxCell>
                <mxCell id="9KXFdbqg7bl_hJVnsyor-16" value="likesUserList" style="shape=table;startSize=30;container=1;collapsible=1;childLayout=tableLayout;fixedRows=1;rowLines=0;fontStyle=1;align=center;resizeLast=1;" vertex="1" parent="9KXFdbqg7bl_hJVnsyor-8">
                    <mxGeometry x="80" y="190" width="160" height="190" as="geometry"/>
                </mxCell>
                <mxCell id="9KXFdbqg7bl_hJVnsyor-17" value="" style="shape=partialRectangle;collapsible=0;dropTarget=0;pointerEvents=0;fillColor=none;top=0;left=0;bottom=0;right=0;points=[[0,0.5],[1,0.5]];portConstraint=eastwest;" vertex="1" parent="9KXFdbqg7bl_hJVnsyor-16">
                    <mxGeometry y="30" width="160" height="30" as="geometry"/>
                </mxCell>
                <mxCell id="9KXFdbqg7bl_hJVnsyor-18" value="Integer" style="shape=partialRectangle;connectable=0;fillColor=none;top=0;left=0;bottom=0;right=0;editable=1;overflow=hidden;" vertex="1" parent="9KXFdbqg7bl_hJVnsyor-17">
                    <mxGeometry width="60" height="30" as="geometry">
                        <mxRectangle width="60" height="30" as="alternateBounds"/>
                    </mxGeometry>
                </mxCell>
                <mxCell id="9KXFdbqg7bl_hJVnsyor-19" value="id" style="shape=partialRectangle;connectable=0;fillColor=none;top=0;left=0;bottom=0;right=0;align=left;spacingLeft=6;overflow=hidden;" vertex="1" parent="9KXFdbqg7bl_hJVnsyor-17">
                    <mxGeometry x="60" width="100" height="30" as="geometry">
                        <mxRectangle width="100" height="30" as="alternateBounds"/>
                    </mxGeometry>
                </mxCell>
                <mxCell id="9KXFdbqg7bl_hJVnsyor-20" value="" style="shape=partialRectangle;collapsible=0;dropTarget=0;pointerEvents=0;fillColor=none;top=0;left=0;bottom=0;right=0;points=[[0,0.5],[1,0.5]];portConstraint=eastwest;" vertex="1" parent="9KXFdbqg7bl_hJVnsyor-16">
                    <mxGeometry y="60" width="160" height="30" as="geometry"/>
                </mxCell>
                <mxCell id="9KXFdbqg7bl_hJVnsyor-21" value="String" style="shape=partialRectangle;connectable=0;fillColor=none;top=0;left=0;bottom=0;right=0;editable=1;overflow=hidden;" vertex="1" parent="9KXFdbqg7bl_hJVnsyor-20">
                    <mxGeometry width="60" height="30" as="geometry">
                        <mxRectangle width="60" height="30" as="alternateBounds"/>
                    </mxGeometry>
                </mxCell>
                <mxCell id="9KXFdbqg7bl_hJVnsyor-22" value="userName" style="shape=partialRectangle;connectable=0;fillColor=none;top=0;left=0;bottom=0;right=0;align=left;spacingLeft=6;overflow=hidden;" vertex="1" parent="9KXFdbqg7bl_hJVnsyor-20">
                    <mxGeometry x="60" width="100" height="30" as="geometry">
                        <mxRectangle width="100" height="30" as="alternateBounds"/>
                    </mxGeometry>
                </mxCell>
                <mxCell id="9KXFdbqg7bl_hJVnsyor-23" value="" style="shape=partialRectangle;collapsible=0;dropTarget=0;pointerEvents=0;fillColor=none;top=0;left=0;bottom=0;right=0;points=[[0,0.5],[1,0.5]];portConstraint=eastwest;" vertex="1" parent="9KXFdbqg7bl_hJVnsyor-16">
                    <mxGeometry y="90" width="160" height="30" as="geometry"/>
                </mxCell>
                <mxCell id="9KXFdbqg7bl_hJVnsyor-24" value="String" style="shape=partialRectangle;connectable=0;fillColor=none;top=0;left=0;bottom=0;right=0;editable=1;overflow=hidden;" vertex="1" parent="9KXFdbqg7bl_hJVnsyor-23">
                    <mxGeometry width="60" height="30" as="geometry">
                        <mxRectangle width="60" height="30" as="alternateBounds"/>
                    </mxGeometry>
                </mxCell>
                <mxCell id="9KXFdbqg7bl_hJVnsyor-25" value="engineerType" style="shape=partialRectangle;connectable=0;fillColor=none;top=0;left=0;bottom=0;right=0;align=left;spacingLeft=6;overflow=hidden;" vertex="1" parent="9KXFdbqg7bl_hJVnsyor-23">
                    <mxGeometry x="60" width="100" height="30" as="geometry">
                        <mxRectangle width="100" height="30" as="alternateBounds"/>
                    </mxGeometry>
                </mxCell>
                <mxCell id="9KXFdbqg7bl_hJVnsyor-26" value="" style="shape=partialRectangle;collapsible=0;dropTarget=0;pointerEvents=0;fillColor=none;top=0;left=0;bottom=0;right=0;points=[[0,0.5],[1,0.5]];portConstraint=eastwest;" vertex="1" parent="9KXFdbqg7bl_hJVnsyor-16">
                    <mxGeometry y="120" width="160" height="30" as="geometry"/>
                </mxCell>
                <mxCell id="9KXFdbqg7bl_hJVnsyor-27" value="String" style="shape=partialRectangle;connectable=0;fillColor=none;top=0;left=0;bottom=0;right=0;editable=1;overflow=hidden;" vertex="1" parent="9KXFdbqg7bl_hJVnsyor-26">
                    <mxGeometry width="60" height="30" as="geometry">
                        <mxRectangle width="60" height="30" as="alternateBounds"/>
                    </mxGeometry>
                </mxCell>
                <mxCell id="9KXFdbqg7bl_hJVnsyor-28" value="description" style="shape=partialRectangle;connectable=0;fillColor=none;top=0;left=0;bottom=0;right=0;align=left;spacingLeft=6;overflow=hidden;" vertex="1" parent="9KXFdbqg7bl_hJVnsyor-26">
                    <mxGeometry x="60" width="100" height="30" as="geometry">
                        <mxRectangle width="100" height="30" as="alternateBounds"/>
                    </mxGeometry>
                </mxCell>
                <mxCell id="9KXFdbqg7bl_hJVnsyor-29" value="" style="shape=partialRectangle;collapsible=0;dropTarget=0;pointerEvents=0;fillColor=none;top=0;left=0;bottom=0;right=0;points=[[0,0.5],[1,0.5]];portConstraint=eastwest;" vertex="1" parent="9KXFdbqg7bl_hJVnsyor-16">
                    <mxGeometry y="150" width="160" height="30" as="geometry"/>
                </mxCell>
                <mxCell id="9KXFdbqg7bl_hJVnsyor-30" value="Integer" style="shape=partialRectangle;connectable=0;fillColor=none;top=0;left=0;bottom=0;right=0;editable=1;overflow=hidden;" vertex="1" parent="9KXFdbqg7bl_hJVnsyor-29">
                    <mxGeometry width="60" height="30" as="geometry">
                        <mxRectangle width="60" height="30" as="alternateBounds"/>
                    </mxGeometry>
                </mxCell>
                <mxCell id="9KXFdbqg7bl_hJVnsyor-31" value="followStatus" style="shape=partialRectangle;connectable=0;fillColor=none;top=0;left=0;bottom=0;right=0;align=left;spacingLeft=6;overflow=hidden;" vertex="1" parent="9KXFdbqg7bl_hJVnsyor-29">
                    <mxGeometry x="60" width="100" height="30" as="geometry">
                        <mxRectangle width="100" height="30" as="alternateBounds"/>
                    </mxGeometry>
                </mxCell>
                <mxCell id="9KXFdbqg7bl_hJVnsyor-32" value="" style="edgeStyle=entityRelationEdgeStyle;fontSize=12;html=1;endArrow=ERoneToMany;" edge="1" parent="9KXFdbqg7bl_hJVnsyor-8" source="9KXFdbqg7bl_hJVnsyor-16" target="9KXFdbqg7bl_hJVnsyor-13">
                    <mxGeometry width="100" height="100" relative="1" as="geometry">
                        <mxPoint x="206" y="335" as="sourcePoint"/>
                        <mxPoint x="306" y="235" as="targetPoint"/>
                    </mxGeometry>
                </mxCell>
                <mxCell id="9KXFdbqg7bl_hJVnsyor-33" value="&lt;font style=&quot;font-size: 14px&quot;&gt;article / commentLike&lt;/font&gt;" style="endArrow=open;endSize=12;dashed=1;html=1;" edge="1" parent="PjnLuy9dRTS5BcuDn4Ve-1" source="9KXFdbqg7bl_hJVnsyor-1" target="9KXFdbqg7bl_hJVnsyor-9">
                    <mxGeometry width="160" relative="1" as="geometry">
                        <mxPoint x="310" y="145" as="sourcePoint"/>
                        <mxPoint x="510" y="180" as="targetPoint"/>
                    </mxGeometry>
                </mxCell>
                <mxCell id="9KXFdbqg7bl_hJVnsyor-34" value="Front" style="swimlane;" vertex="1" parent="PjnLuy9dRTS5BcuDn4Ve-1">
                    <mxGeometry x="54" y="550" width="320" height="320" as="geometry"/>
                </mxCell>
                <mxCell id="9KXFdbqg7bl_hJVnsyor-35" value="Post" style="shape=table;startSize=30;container=1;collapsible=1;childLayout=tableLayout;fixedRows=1;rowLines=0;fontStyle=1;align=center;resizeLast=1;" vertex="1" parent="9KXFdbqg7bl_hJVnsyor-34">
                    <mxGeometry x="70" y="70" width="180" height="100" as="geometry"/>
                </mxCell>
                <mxCell id="9KXFdbqg7bl_hJVnsyor-36" value="" style="shape=partialRectangle;collapsible=0;dropTarget=0;pointerEvents=0;fillColor=none;top=0;left=0;bottom=0;right=0;points=[[0,0.5],[1,0.5]];portConstraint=eastwest;" vertex="1" parent="9KXFdbqg7bl_hJVnsyor-35">
                    <mxGeometry y="30" width="180" height="30" as="geometry"/>
                </mxCell>
                <mxCell id="9KXFdbqg7bl_hJVnsyor-37" value="Integer" style="shape=partialRectangle;connectable=0;fillColor=none;top=0;left=0;bottom=0;right=0;editable=1;overflow=hidden;" vertex="1" parent="9KXFdbqg7bl_hJVnsyor-36">
                    <mxGeometry width="71" height="30" as="geometry">
                        <mxRectangle width="71" height="30" as="alternateBounds"/>
                    </mxGeometry>
                </mxCell>
                <mxCell id="9KXFdbqg7bl_hJVnsyor-38" value="userInfoId" style="shape=partialRectangle;connectable=0;fillColor=none;top=0;left=0;bottom=0;right=0;align=left;spacingLeft=6;overflow=hidden;" vertex="1" parent="9KXFdbqg7bl_hJVnsyor-36">
                    <mxGeometry x="71" width="109" height="30" as="geometry">
                        <mxRectangle width="109" height="30" as="alternateBounds"/>
                    </mxGeometry>
                </mxCell>
                <mxCell id="9KXFdbqg7bl_hJVnsyor-39" value="" style="shape=partialRectangle;collapsible=0;dropTarget=0;pointerEvents=0;fillColor=none;top=0;left=0;bottom=0;right=0;points=[[0,0.5],[1,0.5]];portConstraint=eastwest;" vertex="1" parent="9KXFdbqg7bl_hJVnsyor-35">
                    <mxGeometry y="60" width="180" height="30" as="geometry"/>
                </mxCell>
                <mxCell id="9KXFdbqg7bl_hJVnsyor-40" value="Integer" style="shape=partialRectangle;connectable=0;fillColor=none;top=0;left=0;bottom=0;right=0;editable=1;overflow=hidden;" vertex="1" parent="9KXFdbqg7bl_hJVnsyor-39">
                    <mxGeometry width="71" height="30" as="geometry">
                        <mxRectangle width="71" height="30" as="alternateBounds"/>
                    </mxGeometry>
                </mxCell>
                <mxCell id="9KXFdbqg7bl_hJVnsyor-41" value="commentId" style="shape=partialRectangle;connectable=0;fillColor=none;top=0;left=0;bottom=0;right=0;align=left;spacingLeft=6;overflow=hidden;" vertex="1" parent="9KXFdbqg7bl_hJVnsyor-39">
                    <mxGeometry x="71" width="109" height="30" as="geometry">
                        <mxRectangle width="109" height="30" as="alternateBounds"/>
                    </mxGeometry>
                </mxCell>
                <mxCell id="9KXFdbqg7bl_hJVnsyor-42" value="Back" style="swimlane;" vertex="1" parent="PjnLuy9dRTS5BcuDn4Ve-1">
                    <mxGeometry x="454" y="550" width="320" height="410" as="geometry"/>
                </mxCell>
                <mxCell id="9KXFdbqg7bl_hJVnsyor-43" value="data" style="shape=table;startSize=30;container=1;collapsible=1;childLayout=tableLayout;fixedRows=1;rowLines=0;fontStyle=1;align=center;resizeLast=1;" vertex="1" parent="9KXFdbqg7bl_hJVnsyor-42">
                    <mxGeometry x="86" y="70" width="180" height="100" as="geometry"/>
                </mxCell>
                <mxCell id="9KXFdbqg7bl_hJVnsyor-44" value="" style="shape=partialRectangle;collapsible=0;dropTarget=0;pointerEvents=0;fillColor=none;top=0;left=0;bottom=0;right=0;points=[[0,0.5],[1,0.5]];portConstraint=eastwest;" vertex="1" parent="9KXFdbqg7bl_hJVnsyor-43">
                    <mxGeometry y="30" width="180" height="30" as="geometry"/>
                </mxCell>
                <mxCell id="9KXFdbqg7bl_hJVnsyor-45" value="status" style="shape=partialRectangle;connectable=0;fillColor=none;top=0;left=0;bottom=0;right=0;editable=1;overflow=hidden;" vertex="1" parent="9KXFdbqg7bl_hJVnsyor-44">
                    <mxGeometry width="80" height="30" as="geometry">
                        <mxRectangle width="80" height="30" as="alternateBounds"/>
                    </mxGeometry>
                </mxCell>
                <mxCell id="9KXFdbqg7bl_hJVnsyor-46" value="success / error" style="shape=partialRectangle;connectable=0;fillColor=none;top=0;left=0;bottom=0;right=0;align=left;spacingLeft=6;overflow=hidden;" vertex="1" parent="9KXFdbqg7bl_hJVnsyor-44">
                    <mxGeometry x="80" width="100" height="30" as="geometry">
                        <mxRectangle width="100" height="30" as="alternateBounds"/>
                    </mxGeometry>
                </mxCell>
                <mxCell id="9KXFdbqg7bl_hJVnsyor-47" value="" style="shape=partialRectangle;collapsible=0;dropTarget=0;pointerEvents=0;fillColor=none;top=0;left=0;bottom=0;right=0;points=[[0,0.5],[1,0.5]];portConstraint=eastwest;" vertex="1" parent="9KXFdbqg7bl_hJVnsyor-43">
                    <mxGeometry y="60" width="180" height="30" as="geometry"/>
                </mxCell>
                <mxCell id="9KXFdbqg7bl_hJVnsyor-48" value="List" style="shape=partialRectangle;connectable=0;fillColor=none;top=0;left=0;bottom=0;right=0;editable=1;overflow=hidden;" vertex="1" parent="9KXFdbqg7bl_hJVnsyor-47">
                    <mxGeometry width="80" height="30" as="geometry">
                        <mxRectangle width="80" height="30" as="alternateBounds"/>
                    </mxGeometry>
                </mxCell>
                <mxCell id="9KXFdbqg7bl_hJVnsyor-49" value="likesUserList" style="shape=partialRectangle;connectable=0;fillColor=none;top=0;left=0;bottom=0;right=0;align=left;spacingLeft=6;overflow=hidden;" vertex="1" parent="9KXFdbqg7bl_hJVnsyor-47">
                    <mxGeometry x="80" width="100" height="30" as="geometry">
                        <mxRectangle width="100" height="30" as="alternateBounds"/>
                    </mxGeometry>
                </mxCell>
                <mxCell id="9KXFdbqg7bl_hJVnsyor-50" value="likesUserList" style="shape=table;startSize=30;container=1;collapsible=1;childLayout=tableLayout;fixedRows=1;rowLines=0;fontStyle=1;align=center;resizeLast=1;" vertex="1" parent="9KXFdbqg7bl_hJVnsyor-42">
                    <mxGeometry x="96" y="190" width="160" height="190" as="geometry"/>
                </mxCell>
                <mxCell id="9KXFdbqg7bl_hJVnsyor-51" value="" style="shape=partialRectangle;collapsible=0;dropTarget=0;pointerEvents=0;fillColor=none;top=0;left=0;bottom=0;right=0;points=[[0,0.5],[1,0.5]];portConstraint=eastwest;" vertex="1" parent="9KXFdbqg7bl_hJVnsyor-50">
                    <mxGeometry y="30" width="160" height="30" as="geometry"/>
                </mxCell>
                <mxCell id="9KXFdbqg7bl_hJVnsyor-52" value="Integer" style="shape=partialRectangle;connectable=0;fillColor=none;top=0;left=0;bottom=0;right=0;editable=1;overflow=hidden;" vertex="1" parent="9KXFdbqg7bl_hJVnsyor-51">
                    <mxGeometry width="60" height="30" as="geometry">
                        <mxRectangle width="60" height="30" as="alternateBounds"/>
                    </mxGeometry>
                </mxCell>
                <mxCell id="9KXFdbqg7bl_hJVnsyor-53" value="id" style="shape=partialRectangle;connectable=0;fillColor=none;top=0;left=0;bottom=0;right=0;align=left;spacingLeft=6;overflow=hidden;" vertex="1" parent="9KXFdbqg7bl_hJVnsyor-51">
                    <mxGeometry x="60" width="100" height="30" as="geometry">
                        <mxRectangle width="100" height="30" as="alternateBounds"/>
                    </mxGeometry>
                </mxCell>
                <mxCell id="9KXFdbqg7bl_hJVnsyor-54" value="" style="shape=partialRectangle;collapsible=0;dropTarget=0;pointerEvents=0;fillColor=none;top=0;left=0;bottom=0;right=0;points=[[0,0.5],[1,0.5]];portConstraint=eastwest;" vertex="1" parent="9KXFdbqg7bl_hJVnsyor-50">
                    <mxGeometry y="60" width="160" height="30" as="geometry"/>
                </mxCell>
                <mxCell id="9KXFdbqg7bl_hJVnsyor-55" value="String" style="shape=partialRectangle;connectable=0;fillColor=none;top=0;left=0;bottom=0;right=0;editable=1;overflow=hidden;" vertex="1" parent="9KXFdbqg7bl_hJVnsyor-54">
                    <mxGeometry width="60" height="30" as="geometry">
                        <mxRectangle width="60" height="30" as="alternateBounds"/>
                    </mxGeometry>
                </mxCell>
                <mxCell id="9KXFdbqg7bl_hJVnsyor-56" value="userName" style="shape=partialRectangle;connectable=0;fillColor=none;top=0;left=0;bottom=0;right=0;align=left;spacingLeft=6;overflow=hidden;" vertex="1" parent="9KXFdbqg7bl_hJVnsyor-54">
                    <mxGeometry x="60" width="100" height="30" as="geometry">
                        <mxRectangle width="100" height="30" as="alternateBounds"/>
                    </mxGeometry>
                </mxCell>
                <mxCell id="9KXFdbqg7bl_hJVnsyor-57" value="" style="shape=partialRectangle;collapsible=0;dropTarget=0;pointerEvents=0;fillColor=none;top=0;left=0;bottom=0;right=0;points=[[0,0.5],[1,0.5]];portConstraint=eastwest;" vertex="1" parent="9KXFdbqg7bl_hJVnsyor-50">
                    <mxGeometry y="90" width="160" height="30" as="geometry"/>
                </mxCell>
                <mxCell id="9KXFdbqg7bl_hJVnsyor-58" value="String" style="shape=partialRectangle;connectable=0;fillColor=none;top=0;left=0;bottom=0;right=0;editable=1;overflow=hidden;" vertex="1" parent="9KXFdbqg7bl_hJVnsyor-57">
                    <mxGeometry width="60" height="30" as="geometry">
                        <mxRectangle width="60" height="30" as="alternateBounds"/>
                    </mxGeometry>
                </mxCell>
                <mxCell id="9KXFdbqg7bl_hJVnsyor-59" value="engineerType" style="shape=partialRectangle;connectable=0;fillColor=none;top=0;left=0;bottom=0;right=0;align=left;spacingLeft=6;overflow=hidden;" vertex="1" parent="9KXFdbqg7bl_hJVnsyor-57">
                    <mxGeometry x="60" width="100" height="30" as="geometry">
                        <mxRectangle width="100" height="30" as="alternateBounds"/>
                    </mxGeometry>
                </mxCell>
                <mxCell id="9KXFdbqg7bl_hJVnsyor-60" value="" style="shape=partialRectangle;collapsible=0;dropTarget=0;pointerEvents=0;fillColor=none;top=0;left=0;bottom=0;right=0;points=[[0,0.5],[1,0.5]];portConstraint=eastwest;" vertex="1" parent="9KXFdbqg7bl_hJVnsyor-50">
                    <mxGeometry y="120" width="160" height="30" as="geometry"/>
                </mxCell>
                <mxCell id="9KXFdbqg7bl_hJVnsyor-61" value="String" style="shape=partialRectangle;connectable=0;fillColor=none;top=0;left=0;bottom=0;right=0;editable=1;overflow=hidden;" vertex="1" parent="9KXFdbqg7bl_hJVnsyor-60">
                    <mxGeometry width="60" height="30" as="geometry">
                        <mxRectangle width="60" height="30" as="alternateBounds"/>
                    </mxGeometry>
                </mxCell>
                <mxCell id="9KXFdbqg7bl_hJVnsyor-62" value="description" style="shape=partialRectangle;connectable=0;fillColor=none;top=0;left=0;bottom=0;right=0;align=left;spacingLeft=6;overflow=hidden;" vertex="1" parent="9KXFdbqg7bl_hJVnsyor-60">
                    <mxGeometry x="60" width="100" height="30" as="geometry">
                        <mxRectangle width="100" height="30" as="alternateBounds"/>
                    </mxGeometry>
                </mxCell>
                <mxCell id="9KXFdbqg7bl_hJVnsyor-63" value="" style="shape=partialRectangle;collapsible=0;dropTarget=0;pointerEvents=0;fillColor=none;top=0;left=0;bottom=0;right=0;points=[[0,0.5],[1,0.5]];portConstraint=eastwest;" vertex="1" parent="9KXFdbqg7bl_hJVnsyor-50">
                    <mxGeometry y="150" width="160" height="30" as="geometry"/>
                </mxCell>
                <mxCell id="9KXFdbqg7bl_hJVnsyor-64" value="Integer" style="shape=partialRectangle;connectable=0;fillColor=none;top=0;left=0;bottom=0;right=0;editable=1;overflow=hidden;" vertex="1" parent="9KXFdbqg7bl_hJVnsyor-63">
                    <mxGeometry width="60" height="30" as="geometry">
                        <mxRectangle width="60" height="30" as="alternateBounds"/>
                    </mxGeometry>
                </mxCell>
                <mxCell id="9KXFdbqg7bl_hJVnsyor-65" value="followStatus" style="shape=partialRectangle;connectable=0;fillColor=none;top=0;left=0;bottom=0;right=0;align=left;spacingLeft=6;overflow=hidden;" vertex="1" parent="9KXFdbqg7bl_hJVnsyor-63">
                    <mxGeometry x="60" width="100" height="30" as="geometry">
                        <mxRectangle width="100" height="30" as="alternateBounds"/>
                    </mxGeometry>
                </mxCell>
                <mxCell id="9KXFdbqg7bl_hJVnsyor-66" value="" style="edgeStyle=entityRelationEdgeStyle;fontSize=12;html=1;endArrow=ERoneToMany;" edge="1" parent="9KXFdbqg7bl_hJVnsyor-42" source="9KXFdbqg7bl_hJVnsyor-50" target="9KXFdbqg7bl_hJVnsyor-47">
                    <mxGeometry width="100" height="100" relative="1" as="geometry">
                        <mxPoint x="-144" y="30" as="sourcePoint"/>
                        <mxPoint x="-44" y="-70" as="targetPoint"/>
                    </mxGeometry>
                </mxCell>
                <mxCell id="9KXFdbqg7bl_hJVnsyor-67" value="&lt;font style=&quot;font-size: 14px&quot;&gt;article / removeCommentLike&lt;/font&gt;" style="endArrow=open;endSize=12;dashed=1;html=1;" edge="1" parent="PjnLuy9dRTS5BcuDn4Ve-1" source="9KXFdbqg7bl_hJVnsyor-35" target="9KXFdbqg7bl_hJVnsyor-43">
                    <mxGeometry width="160" relative="1" as="geometry">
                        <mxPoint x="310" y="635" as="sourcePoint"/>
                        <mxPoint x="510" y="670" as="targetPoint"/>
                    </mxGeometry>
                </mxCell>
                <mxCell id="9KXFdbqg7bl_hJVnsyor-68" value="コメントいいね" style="rounded=1;arcSize=10;whiteSpace=wrap;html=1;align=center;fontSize=14;" vertex="1" parent="PjnLuy9dRTS5BcuDn4Ve-1">
                    <mxGeometry x="54" y="20" width="156" height="40" as="geometry"/>
                </mxCell>
                <mxCell id="9KXFdbqg7bl_hJVnsyor-69" value="コメントいいね解除" style="rounded=1;arcSize=10;whiteSpace=wrap;html=1;align=center;fontSize=14;" vertex="1" parent="PjnLuy9dRTS5BcuDn4Ve-1">
                    <mxGeometry x="54" y="510" width="156" height="40" as="geometry"/>
                </mxCell>
            </root>
        </mxGraphModel>
    </diagram>
</mxfile>